# Blender v2.77 (sub 0) OBJ File: ''
# www.blender.org
mtllib kei footright.mtl
o model459
v -1.625900 -14.989400 -1.801800
v -0.924100 -14.982300 -1.764600
v -0.459400 -14.996300 -1.079400
v -2.104700 -14.996300 -1.200900
v -0.484300 -15.000900 -0.072300
v -2.173300 -14.972600 -0.430600
v -0.459800 -15.002501 0.470400
v -2.278100 -14.970301 0.329400
v -0.525100 -15.007600 0.921500
v -2.228400 -14.979100 0.913600
v -1.045800 -15.007600 1.560100
v -1.751800 -14.996300 1.592200
v -1.752500 -14.413500 1.622900
v -1.043500 -14.425600 1.639200
v -1.034100 -14.145400 1.124500
v -1.713300 -14.160200 1.101500
v -1.036100 -14.002700 0.586000
v -1.655500 -13.995800 0.555300
v -0.979600 -13.319000 -0.044100
v -1.554600 -13.268000 -0.066100
v -1.562500 -13.225100 -1.546300
v -0.946000 -13.279400 -1.525200
v -0.926200 -14.306000 -1.819600
v -1.732000 -14.316000 -1.846100
v -0.574200 -13.338400 -0.419000
v -0.557100 -13.941200 -0.043900
v -0.495600 -14.220900 0.515800
v -0.532200 -14.442500 -0.095400
v -0.436900 -14.444099 0.489800
v -0.561800 -13.321600 -1.029100
v -0.450200 -14.329500 -1.174100
v -1.347000 -12.629800 -0.346800
v -1.551200 -12.606800 -0.571200
v -1.902900 -12.596300 -0.404400
v -1.532700 -12.637900 -0.039100
v -1.915900 -13.243000 -0.452300
v -0.909600 -12.691999 0.009100
v -0.525600 -12.712700 -0.396900
v -0.516200 -12.695000 -1.032300
v -0.900200 -12.649600 -1.490200
v -1.538000 -12.595200 -1.516100
v -1.975500 -13.220400 -1.083000
v -1.892800 -12.578100 -1.082100
v -1.057100 -12.653800 -0.341700
v -0.847100 -12.664800 -0.559000
v -0.841900 -12.655000 -0.908100
v -1.071500 -12.628700 -1.174800
v -1.332400 -12.607200 -1.180099
v -1.546300 -12.596600 -0.946300
v -2.309800 -14.394600 0.924200
v -2.128300 -14.159400 0.493900
v -2.145500 -13.916100 -0.133900
v -2.269700 -14.365499 -1.258200
v -2.304300 -14.421700 -0.440800
v -2.340400 -14.386100 0.334500
v -0.512900 -14.426800 0.998200
v -1.199312 -12.630337 -0.753500
vt 0.634200 0.996500
vt 0.556600 0.993000
vt 0.521800 0.901200
vt 0.684300 0.915100
vt 0.509900 0.759300
vt 0.685100 0.798200
vt 0.510200 0.663200
vt 0.684400 0.679700
vt 0.509100 0.601000
vt 0.680500 0.598900
vt 0.540200 0.510400
vt 0.629700 0.504500
vt 0.800100 0.557600
vt 0.690900 0.557600
vt 0.690900 0.620000
vt 0.800100 0.620000
vt 0.690900 0.698000
vt 0.800100 0.698000
vt 0.690900 0.830600
vt 0.800100 0.830600
vt 0.817100 0.682400
vt 0.885700 0.682400
vt 0.885700 0.576200
vt 0.817100 0.576200
vt 0.885700 0.503000
vt 0.817100 0.503000
vt 0.815700 0.800000
vt 0.815700 0.758000
vt 0.897900 0.680000
vt 0.884000 0.750700
vt 0.918800 0.685800
vt 0.941600 0.760700
vt 0.939200 0.688700
vt 0.995100 0.759700
vt 0.995100 0.690100
vt 0.815700 0.874900
vt 0.930000 0.891100
vt 0.995100 0.882800
vt 0.362700 0.988100
vt 0.362700 0.996100
vt 0.381500 0.996100
vt 0.381500 0.988100
vt 0.494300 0.996100
vt 0.494300 0.988100
vt 0.494300 0.964000
vt 0.381500 0.964000
vt 0.494300 0.956000
vt 0.381500 0.956000
vt 0.494300 0.908200
vt 0.381500 0.908200
vt 0.494300 0.835700
vt 0.381500 0.835700
vt 0.494300 0.811600
vt 0.381500 0.811600
vt 0.494300 0.803600
vt 0.381500 0.803600
vt 0.494300 0.795600
vt 0.381500 0.795600
vt 0.362700 0.964000
vt 0.362700 0.956000
vt 0.362700 0.908200
vt 0.362700 0.835700
vt 0.362700 0.811600
vt 0.362700 0.803600
vt 0.362700 0.795600
vt 0.995100 0.632800
vt 0.995100 0.550200
vt 0.937000 0.547400
vt 0.937000 0.632300
vt 0.914400 0.611900
vt 0.914100 0.689200
vt 0.897900 0.683500
vt 0.815700 0.761200
vt 0.815700 0.804900
vt 0.895800 0.764100
vt 0.815700 0.882500
vt 0.930000 0.900500
vt 0.815700 0.932000
vt 0.923400 0.971000
vt 0.995100 0.971000
vt 0.995100 0.894800
vt 0.995100 0.799400
vt 0.937000 0.800300
vt 0.937000 0.704700
vt 0.995100 0.634600
vt 0.937100 0.626100
vt 0.911900 0.610200
vt 0.800100 0.560700
vt 0.800100 0.503000
vt 0.690900 0.503000
vt 0.690900 0.560700
vt 0.995100 0.971000
vt 0.923400 0.971000
vt 0.815700 0.932000
vt 0.995100 0.704400
vt 0.937000 0.546500
vt 0.995100 0.555300
vt 0.362700 0.835700
vt 0.362700 0.964000
vt 0.362700 0.908200
vt 0.362700 0.803600
vt 0.362700 0.811600
vt 0.362700 0.956000
vt 0.362700 0.988100
vt 0.362700 0.996100
vn -0.281000 -0.658200 -0.698400
vn 0.374900 -0.635300 -0.675100
vn 0.731500 -0.656600 -0.183700
vn -0.620700 -0.739200 -0.261200
vn 0.712400 -0.701100 -0.029700
vn -0.631100 -0.774900 -0.035400
vn 0.707000 -0.706600 0.028900
vn -0.700500 -0.713300 -0.022700
vn 0.672600 -0.685200 0.279400
vn -0.679600 -0.690000 0.249100
vn 0.326300 -0.672800 0.664000
vn -0.353400 -0.632900 0.688900
vn -0.381100 0.428200 0.819400
vn 0.358400 0.387400 0.849400
vn 0.234600 0.898100 0.372000
vn -0.222200 0.911900 0.344900
vn 0.242800 0.850900 0.465800
vn -0.181000 0.830700 0.526400
vn 0.369400 0.305400 0.877600
vn -0.361000 0.386400 0.848800
vn -0.379000 0.187000 -0.906300
vn 0.462900 0.133200 -0.876300
vn 0.448700 0.089000 -0.889200
vn -0.413900 0.075200 -0.907200
vn 0.943300 0.061700 0.326200
vn 0.920900 0.287000 0.263700
vn 0.799300 0.576100 0.170900
vn 0.997100 0.070100 -0.030300
vn 0.992700 0.120200 0.002500
vn 0.954200 0.033200 -0.297200
vn 0.953400 0.049800 -0.297400
vn 0.068200 0.995500 0.066000
vn 0.048600 0.998000 0.039600
vn -0.695700 0.639100 0.328000
vn -0.285400 0.610100 0.739100
vn -0.901900 0.280100 0.328700
vn 0.327300 0.544100 0.772500
vn 0.773600 0.549900 0.314900
vn 0.785600 0.568600 -0.243900
vn 0.395600 0.612500 -0.684400
vn -0.273900 0.656500 -0.702800
vn -0.929000 0.215600 -0.300800
vn -0.677800 0.696700 -0.234700
vn 0.098500 0.992900 0.067300
vn 0.124900 0.991100 0.045300
vn 0.126300 0.991900 0.013600
vn 0.100200 0.994900 -0.010500
vn 0.068500 0.997600 -0.006500
vn 0.047500 0.998800 0.015000
vn -0.859400 0.369100 0.353800
vn -0.617900 0.727400 0.298500
vn -0.928200 0.363100 0.081100
vn -0.924400 0.016300 -0.381100
vn -0.998600 0.034400 -0.041000
vn -0.974000 0.222000 0.045900
vn 0.837300 0.336500 0.430800
vn 0.081300 0.996300 0.028500
vn 0.081200 0.996300 0.028700
vn 0.081900 0.996200 0.028500
vn 0.081600 0.996300 0.028800
vn 0.081200 0.996300 0.028800
vn 0.081000 0.996300 0.028500
vn 0.081200 0.996300 0.028200
vn 0.081600 0.996300 0.028300
usemtl None
s 1
f 1/1/1 2/2/2 3/3/3
f 1/1/1 3/3/3 4/4/4
f 4/4/4 3/3/3 5/5/5
f 4/4/4 5/5/5 6/6/6
f 6/6/6 5/5/5 7/7/7
f 6/6/6 7/7/7 8/8/8
f 8/8/8 7/7/7 9/9/9
f 8/8/8 9/9/9 10/10/10
f 10/10/10 9/9/9 11/11/11
f 10/10/10 11/11/11 12/12/12
f 13/13/13 14/14/14 15/15/15
f 13/13/13 15/15/15 16/16/16
f 16/16/16 15/15/15 17/17/17
f 16/16/16 17/17/17 18/18/18
f 18/18/18 17/17/17 19/19/19
f 18/18/18 19/19/19 20/20/20
f 21/21/21 22/22/22 23/23/23
f 21/21/21 23/23/23 24/24/24
f 24/24/24 23/23/23 2/25/2
f 24/24/24 2/25/2 1/26/1
f 25/27/25 19/28/19 17/29/17
f 25/27/25 17/29/17 26/30/26
f 26/30/26 17/29/17 27/31/27
f 26/30/26 27/31/27 28/32/28
f 28/32/28 27/31/27 29/33/29
f 28/32/28 29/33/29 5/34/5
f 5/34/5 29/33/29 7/35/7
f 30/36/30 25/27/25 26/30/26
f 30/36/30 26/30/26 31/37/31
f 31/37/31 26/30/26 28/32/28
f 31/37/31 28/32/28 3/38/3
f 3/38/3 28/32/28 5/34/5
f 32/39/32 33/40/33 34/41/34
f 32/39/32 34/41/34 35/42/35
f 35/42/35 34/41/34 36/43/36
f 35/42/35 36/43/36 20/44/20
f 35/42/35 20/44/20 19/45/19
f 35/42/35 19/45/19 37/46/37
f 37/46/37 19/45/19 25/47/25
f 37/46/37 25/47/25 38/48/38
f 38/48/38 25/47/25 30/49/30
f 38/48/38 30/49/30 39/50/39
f 39/50/39 30/49/30 22/51/22
f 39/50/39 22/51/22 40/52/40
f 40/52/40 22/51/22 21/53/21
f 40/52/40 21/53/21 41/54/41
f 41/54/41 21/53/21 42/55/42
f 41/54/41 42/55/42 43/56/43
f 43/56/43 42/55/42 36/57/36
f 43/56/43 36/57/36 34/58/34
f 32/39/32 35/42/35 37/46/37
f 32/39/32 37/46/37 44/59/44
f 44/59/44 37/46/37 38/48/38
f 44/59/44 38/48/38 45/60/45
f 45/60/45 38/48/38 39/50/39
f 45/60/45 39/50/39 46/61/46
f 46/61/46 39/50/39 40/52/40
f 46/61/46 40/52/40 47/62/47
f 47/62/47 40/52/40 41/54/41
f 47/62/47 41/54/41 48/63/48
f 48/63/48 41/54/41 43/56/43
f 48/63/48 43/56/43 49/64/49
f 49/64/49 43/56/43 34/58/34
f 49/64/49 34/58/34 33/65/33
f 10/66/10 12/67/12 13/68/13
f 10/66/10 13/68/13 50/69/50
f 50/69/50 13/68/13 16/70/16
f 50/69/50 16/70/16 51/71/51
f 51/71/51 16/70/16 18/72/18
f 51/71/51 18/72/18 20/73/20
f 51/71/51 20/73/20 36/74/36
f 51/71/51 36/74/36 52/75/52
f 52/75/52 36/74/36 42/76/42
f 52/75/52 42/76/42 53/77/53
f 53/77/53 42/76/42 21/78/21
f 53/77/53 21/78/21 24/79/24
f 24/79/24 1/80/1 4/81/4
f 24/79/24 4/81/4 53/77/53
f 53/77/53 4/81/4 6/82/6
f 53/77/53 6/82/6 54/83/54
f 54/83/54 6/82/6 55/84/55
f 54/83/54 55/84/55 52/75/52
f 52/75/52 55/84/55 51/71/51
f 9/85/9 7/35/7 29/33/29
f 9/85/9 29/33/29 56/86/56
f 56/86/56 29/33/29 27/31/27
f 56/86/56 27/31/27 15/87/15
f 15/87/15 27/31/27 17/29/17
f 13/88/13 12/89/12 11/90/11
f 11/90/11 14/91/14 13/88/13
f 31/37/31 3/38/3 2/92/2
f 2/92/2 23/93/23 31/37/31
f 22/94/22 30/36/30 31/37/31
f 31/37/31 23/93/23 22/94/22
f 53/77/53 54/83/54 52/75/52
f 50/69/50 51/71/51 55/84/55
f 55/84/55 10/66/10 50/69/50
f 10/66/10 55/84/55 8/95/8
f 8/95/8 55/84/55 6/82/6
f 56/86/56 15/87/15 14/96/14
f 14/96/14 9/85/9 56/86/56
f 9/85/9 14/96/14 11/97/11
f 47/62/57 48/63/58 57/98/57
f 44/59/59 45/60/60 57/99/57
f 46/61/61 47/62/57 57/100/57
f 49/64/62 33/65/63 57/101/57
f 48/63/58 49/64/62 57/102/57
f 45/60/60 46/61/61 57/103/57
f 32/39/64 44/59/59 57/104/57
f 33/40/63 32/39/64 57/105/57
