# Blender v2.77 (sub 0) OBJ File: ''
# www.blender.org
mtllib kei lefthand.mtl
o model459.012
v 8.206200 -2.794200 -1.124096
v 8.263500 -2.687500 -1.028896
v 7.913600 -2.736500 -0.864496
v 7.892000 -2.893600 -1.026496
v 7.388100 -2.641100 -0.744996
v 7.739000 -2.940600 -0.972696
v 7.112300 -2.532100 -0.705296
v 7.121800 -2.856399 -0.899996
v 7.016100 -2.896900 -0.639296
v 6.665300 -2.949099 -0.884896
v 6.533700 -2.843600 -0.672096
v 6.340000 -2.823600 -0.886296
v 6.566500 -2.602000 -0.569596
v 6.370700 -2.500900 -0.759096
v 7.689600 -2.884300 -1.545896
v 8.179000 -2.801400 -1.684196
v 7.456900 -2.869300 -2.041696
v 7.762500 -2.849600 -2.065296
v 7.402200 -2.759200 -2.157796
v 7.819300 -2.768900 -2.136896
v 6.235500 -2.478100 -0.912696
v 6.222700 -2.773900 -0.975096
v 6.085100 -2.787599 -1.381296
v 6.285800 -2.840900 -1.380396
v 5.953200 -2.634900 -1.680396
v 6.277300 -2.759900 -1.770396
v 5.933500 -2.505999 -1.720696
v 6.293300 -2.621700 -1.875496
v 7.214300 -2.746800 -2.135496
v 7.338800 -2.856100 -1.992796
v 7.506800 -2.912400 -1.493296
v 7.095800 -2.822500 -1.441596
v 6.640300 -2.894800 -1.421896
v 7.021300 -2.823399 -1.961996
v 6.584700 -2.860500 -1.871096
v 7.030800 -2.736600 -2.092896
v 6.605700 -2.683200 -2.000796
v 6.724800 -2.831300 -0.350896
v 6.699300 -3.038000 -0.493296
v 7.023900 -3.273300 -0.302296
v 7.177800 -3.225300 -0.368396
v 7.075200 -3.198200 -0.183296
v 8.236500 -2.700800 -1.694896
v 8.200300 -2.603200 -1.665296
v 8.169100 -2.586200 -1.082496
v 7.741500 -2.570400 -1.520696
v 7.835600 -2.580600 -0.980796
v 7.444400 -2.558600 -1.494096
v 7.427700 -2.527500 -0.909796
v 7.154200 -2.403300 -1.516396
v 7.180900 -2.371500 -0.961496
v 6.696400 -2.275600 -1.490096
v 6.738800 -2.253400 -0.959996
v 6.365400 -2.265600 -1.495796
v 6.398900 -2.237500 -1.000996
v 6.008300 -2.204600 -1.502196
v 6.158200 -2.190500 -1.091496
v 6.768500 -2.482000 -0.684796
v 6.974400 -2.729400 -0.456696
v 7.181600 -3.119500 -0.258996
v 7.795800 -2.664300 -2.080596
v 7.460600 -2.612300 -2.037496
v 7.303100 -2.573000 -2.007596
v 7.065000 -2.535400 -1.998896
v 6.643400 -2.477600 -1.896496
v 6.322400 -2.464100 -1.787496
v 5.945100 -2.401399 -1.679796
v 6.066242 -2.482485 -1.017629
v 6.056392 -2.710106 -1.065647
v 5.849009 -2.603143 -1.608382
v 5.833850 -2.503954 -1.639394
v 6.006759 -2.261174 -1.155218
v 5.950508 -2.720648 -1.378222
v 5.891409 -2.272024 -1.471256
v 5.842776 -2.423463 -1.607921
v 5.866809 -2.592954 -1.372359
v 5.823294 -2.542578 -1.471034
v 5.916427 -2.490848 -1.217764
v 5.912204 -2.588435 -1.238350
v 5.841472 -2.400618 -1.412244
v 5.890925 -2.395966 -1.276751
v 5.816795 -2.500052 -1.484329
v 5.820621 -2.465544 -1.470836
v 5.828697 -2.497125 -1.367958
vt 0.620000 0.057400
vt 0.616200 0.043800
vt 0.589700 0.043100
vt 0.597500 0.058000
vt 0.572700 0.041300
vt 0.571500 0.058100
vt 0.554700 0.040900
vt 0.552500 0.060600
vt 0.546900 0.042700
vt 0.527600 0.060400
vt 0.526700 0.041800
vt 0.513300 0.060600
vt 0.520300 0.041700
vt 0.509900 0.047600
vt 0.596800 0.087300
vt 0.620000 0.087300
vt 0.588700 0.119200
vt 0.607900 0.118700
vt 0.572000 0.139400
vt 0.596900 0.144500
vt 0.502100 0.052500
vt 0.502400 0.060500
vt 0.502400 0.098200
vt 0.510200 0.092900
vt 0.502200 0.108400
vt 0.510100 0.111500
vt 0.502100 0.111800
vt 0.510000 0.115500
vt 0.555000 0.127400
vt 0.563000 0.120600
vt 0.568600 0.089500
vt 0.552700 0.092000
vt 0.527600 0.093300
vt 0.550100 0.119000
vt 0.527400 0.115500
vt 0.550600 0.126600
vt 0.527300 0.120600
vt 0.526600 0.034800
vt 0.531000 0.037000
vt 0.555100 0.008300
vt 0.563100 0.011900
vt 0.552200 0.007000
vt 0.595300 0.185500
vt 0.605900 0.185500
vt 0.605900 0.185500
vt 0.600600 0.121500
vt 0.613100 0.185500
vt 0.610900 0.129400
vt 0.646600 0.185500
vt 0.646600 0.123800
vt 0.682700 0.185500
vt 0.682700 0.123900
vt 0.695400 0.185500
vt 0.695400 0.129600
vt 0.719600 0.185500
vt 0.719600 0.129600
vt 0.737200 0.185500
vt 0.737200 0.129600
vt 0.746600 0.185500
vt 0.746600 0.129300
vt 0.646600 0.121500
vt 0.674700 0.121500
vt 0.690600 0.107400
vt 0.714300 0.107400
vt 0.735000 0.107400
vt 0.746600 0.107400
vt 0.732000 0.100400
vt 0.714300 0.091300
vt 0.728400 0.090900
vt 0.714300 0.045600
vt 0.728400 0.045600
vt 0.701800 0.045600
vt 0.701800 0.087800
vt 0.595300 0.185500
vt 0.596500 0.242500
vt 0.609300 0.246400
vt 0.615800 0.245100
vt 0.646600 0.245300
vt 0.682700 0.245300
vt 0.695400 0.244700
vt 0.719600 0.244700
vt 0.737200 0.244700
vt 0.746600 0.244700
vt 0.646600 0.247900
vt 0.682700 0.247900
vt 0.695400 0.247900
vt 0.719600 0.247900
vt 0.737200 0.247900
vt 0.746600 0.247900
vt 0.571500 0.058100
vt 0.597500 0.058000
vt 0.596800 0.087300
vt 0.568600 0.089500
vt 0.502100 0.052500
vt 0.502400 0.060500
vt 0.502200 0.108400
vt 0.502100 0.111800
vt 0.746600 0.129300
vt 0.746600 0.107400
vt 0.502400 0.098200
vt 0.746600 0.185500
vt 0.746600 0.247900
vt 0.746600 0.244700
vt 0.502400 0.098200
vt 0.502200 0.108400
vt 0.502100 0.052500
vt 0.502400 0.060500
vt 0.746600 0.185500
vt 0.746600 0.129300
vt 0.502100 0.111800
vt 0.746600 0.244700
vt 0.746600 0.247900
vt 0.746600 0.107400
vt 0.746600 0.244700
vt 0.746600 0.107400
vt 0.502200 0.108400
vt 0.502400 0.060500
vt 0.746600 0.129300
vt 0.502400 0.098200
vt 0.502100 0.111800
vt 0.746600 0.185500
vn 0.593300 -0.784100 0.182300
vn 0.824000 0.046300 0.564800
vn 0.301300 -0.095700 0.948700
vn 0.301000 -0.894300 0.331100
vn 0.131400 -0.014100 0.991200
vn 0.236600 -0.829800 0.505400
vn 0.443000 0.454600 0.772700
vn 0.251200 -0.920300 0.300000
vn 0.757900 -0.625900 -0.184000
vn -0.111900 -0.990300 0.082000
vn -0.658000 -0.630200 0.412100
vn -0.575500 -0.701400 0.420500
vn -0.479200 0.421100 0.770100
vn -0.546400 0.301700 0.781300
vn 0.138500 -0.987000 -0.081600
vn 0.582900 -0.779100 -0.230800
vn -0.061600 -0.932800 -0.355100
vn 0.176400 -0.902900 -0.392100
vn -0.068800 -0.081700 -0.994300
vn 0.417200 -0.148200 -0.896700
vn -0.741800 0.083700 0.665400
vn -0.638200 -0.624900 0.449700
vn -0.265400 -0.944400 -0.194300
vn -0.243300 -0.968100 -0.060300
vn -0.399200 -0.615700 -0.679400
vn -0.431300 -0.754300 -0.494900
vn -0.307300 0.094600 -0.946900
vn -0.393100 -0.024500 -0.919100
vn -0.189100 -0.138100 -0.972200
vn -0.166700 -0.960700 -0.222100
vn -0.036700 -0.996700 -0.072500
vn -0.022900 -0.998700 -0.046000
vn -0.026100 -0.998200 -0.054000
vn -0.049200 -0.949900 -0.308800
vn -0.219500 -0.858400 -0.463600
vn -0.158500 -0.217300 -0.963200
vn -0.298000 -0.048200 -0.953400
vn -0.453900 0.220600 0.863300
vn -0.636900 -0.766300 -0.084500
vn -0.245700 -0.967800 0.054200
vn 0.714300 -0.613000 -0.337700
vn 0.085000 -0.328800 0.940600
vn 0.917500 -0.023100 -0.397100
vn 0.582200 0.769300 -0.263100
vn 0.376100 0.872800 0.311100
vn 0.048100 0.998000 -0.041400
vn 0.160800 0.896300 0.413200
vn 0.232200 0.969800 -0.074400
vn 0.335200 0.877700 0.342400
vn 0.351800 0.912900 -0.207100
vn 0.376900 0.895000 0.238700
vn 0.122400 0.955900 -0.266900
vn 0.114400 0.944000 0.309300
vn 0.073800 0.933600 -0.350600
vn -0.017800 0.923100 0.384300
vn 0.161300 0.844500 -0.510700
vn 0.066600 0.982300 0.175300
vn 0.023600 0.744400 0.667300
vn 0.535200 0.544200 0.646000
vn 0.841600 0.199700 0.501900
vn 0.266000 0.732800 -0.626300
vn 0.073600 0.847800 -0.525200
vn 0.077100 0.865500 -0.494900
vn 0.058200 0.766700 -0.639400
vn -0.091400 0.740200 -0.666100
vn -0.139200 0.695000 -0.705400
vn -0.064700 0.591300 -0.803900
vn -0.554300 -0.483200 0.677700
vn -0.526900 0.073800 0.846700
vn -0.525100 0.124900 0.841800
vn -0.539700 -0.653500 0.530800
vn -0.632100 0.003000 -0.774900
vn -0.555800 -0.650800 -0.517200
vn -0.562800 -0.628200 -0.537200
vn -0.631600 0.026900 -0.774800
vn -0.531100 0.587100 0.610900
vn -0.525100 0.728400 0.440100
vn -0.444900 -0.895300 0.022100
vn -0.445300 -0.891200 -0.086700
vn -0.523400 0.838900 -0.149200
vn -0.533700 0.801800 -0.268900
vn -0.565000 0.511600 -0.647300
vn -0.564600 0.513400 -0.646200
vn -0.939100 -0.342800 -0.024600
vn -0.812700 -0.542500 0.212500
vn -0.820700 -0.545700 0.169100
vn -0.918900 -0.394500 0.001900
vn -0.822500 -0.248200 0.511800
vn -0.800700 0.013800 0.598800
vn -0.800700 0.040400 0.597700
vn -0.825300 -0.357900 0.436800
vn -0.826800 0.261400 0.498100
vn -0.899600 0.413600 0.140000
vn -0.907300 0.404700 0.114200
vn -0.839800 0.340500 0.422800
vn -0.993800 -0.023100 -0.108700
vn -0.994000 -0.009200 -0.109100
vn -0.968500 0.234300 -0.084600
vn -0.962300 0.261300 -0.075300
vn -0.986200 0.119800 0.114200
vn -0.994300 -0.028300 0.102400
vn -0.953400 -0.050700 0.297400
vn -0.863400 -0.005100 0.504500
vn -0.884900 0.145400 0.442500
vn -0.965000 -0.217400 0.146500
vn -0.890100 -0.366400 0.271000
vn -0.878500 -0.169300 0.446700
vn -0.944200 0.232200 0.233600
usemtl None
s 1
f 1/1/1 2/2/2 3/3/3
f 1/1/1 3/3/3 4/4/4
f 4/4/4 3/3/3 5/5/5
f 4/4/4 5/5/5 6/6/6
f 6/6/6 5/5/5 7/7/7
f 6/6/6 7/7/7 8/8/8
f 8/8/8 7/7/7 9/9/9
f 8/8/8 9/9/9 10/10/10
f 10/10/10 9/9/9 11/11/11
f 10/10/10 11/11/11 12/12/12
f 12/12/12 11/11/11 13/13/13
f 12/12/12 13/13/13 14/14/14
f 1/1/1 4/4/4 15/15/15
f 1/1/1 15/15/15 16/16/16
f 16/16/16 15/15/15 17/17/17
f 16/16/16 17/17/17 18/18/18
f 18/18/18 17/17/17 19/19/19
f 18/18/18 19/19/19 20/20/20
f 14/14/14 21/21/21 22/22/22
f 14/14/14 22/22/22 12/12/12
f 12/12/12 22/22/22 23/23/23
f 12/12/12 23/23/23 24/24/24
f 24/24/24 23/23/23 25/25/25
f 24/24/24 25/25/25 26/26/26
f 26/26/26 25/25/25 27/27/27
f 26/26/26 27/27/27 28/28/28
f 29/29/29 19/19/19 17/17/17
f 29/29/29 17/17/17 30/30/30
f 30/30/30 17/17/17 15/15/15
f 30/30/30 15/15/15 31/31/31
f 31/31/31 6/6/6 8/8/8
f 31/31/31 8/8/8 32/32/32
f 32/32/32 8/8/8 10/10/10
f 32/32/32 10/10/10 33/33/33
f 33/33/33 10/10/10 12/12/12
f 33/33/33 12/12/12 24/24/24
f 30/30/30 31/31/31 32/32/32
f 30/30/30 32/32/32 34/34/34
f 34/34/34 32/32/32 33/33/33
f 34/34/34 33/33/33 35/35/35
f 35/35/35 33/33/33 24/24/24
f 35/35/35 24/24/24 26/26/26
f 29/29/29 30/30/30 34/34/34
f 29/29/29 34/34/34 36/36/36
f 36/36/36 34/34/34 35/35/35
f 36/36/36 35/35/35 37/37/37
f 37/37/37 35/35/35 26/26/26
f 37/37/37 26/26/26 28/28/28
f 38/38/38 13/13/13 11/11/11
f 38/38/38 11/11/11 39/39/39
f 39/39/39 11/11/11 9/9/9
f 39/39/39 9/9/9 40/40/40
f 40/40/40 9/9/9 41/41/41
f 40/40/40 41/41/41 42/42/42
f 1/43/1 16/44/16 43/45/43
f 1/43/1 43/45/43 2/46/2
f 2/46/2 43/45/43 44/47/44
f 2/46/2 44/47/44 45/48/45
f 45/48/45 44/47/44 46/49/46
f 45/48/45 46/49/46 47/50/47
f 47/50/47 46/49/46 48/51/48
f 47/50/47 48/51/48 49/52/49
f 49/52/49 48/51/48 50/53/50
f 49/52/49 50/53/50 51/54/51
f 51/54/51 50/53/50 52/55/52
f 51/54/51 52/55/52 53/56/53
f 53/56/53 52/55/52 54/57/54
f 53/56/53 54/57/54 55/58/55
f 55/58/55 54/57/54 56/59/56
f 55/58/55 56/59/56 57/60/57
f 2/46/2 45/48/45 47/50/47
f 2/46/2 47/50/47 3/61/3
f 3/61/3 47/50/47 49/52/49
f 3/61/3 49/52/49 5/62/5
f 5/62/5 49/52/49 51/54/51
f 5/62/5 51/54/51 7/63/7
f 7/63/7 51/54/51 53/56/53
f 7/63/7 53/56/53 58/64/58
f 58/64/58 53/56/53 55/58/55
f 58/64/58 55/58/55 14/65/14
f 14/65/14 55/58/55 57/60/57
f 14/65/14 57/60/57 21/66/21
f 58/64/58 14/65/14 13/67/13
f 58/64/58 13/67/13 59/68/59
f 59/68/59 13/67/13 38/69/38
f 59/68/59 38/69/38 60/70/60
f 60/70/60 38/69/38 42/71/42
f 60/70/60 42/71/42 41/72/41
f 7/63/7 58/64/58 59/68/59
f 7/63/7 59/68/59 9/73/9
f 9/73/9 59/68/59 60/70/60
f 9/73/9 60/70/60 41/72/41
f 16/74/16 18/75/18 20/76/20
f 16/74/16 20/76/20 43/45/43
f 43/45/43 20/76/20 61/77/61
f 43/45/43 61/77/61 44/47/44
f 44/47/44 61/77/61 62/78/62
f 44/47/44 62/78/62 46/49/46
f 46/49/46 62/78/62 63/79/63
f 46/49/46 63/79/63 48/51/48
f 48/51/48 63/79/63 64/80/64
f 48/51/48 64/80/64 50/53/50
f 50/53/50 64/80/64 65/81/65
f 50/53/50 65/81/65 52/55/52
f 52/55/52 65/81/65 66/82/66
f 52/55/52 66/82/66 54/57/54
f 54/57/54 66/82/66 67/83/67
f 54/57/54 67/83/67 56/59/56
f 61/77/61 20/76/20 19/84/19
f 61/77/61 19/84/19 62/78/62
f 62/78/62 19/84/19 29/85/29
f 62/78/62 29/85/29 63/79/63
f 63/79/63 29/85/29 36/86/36
f 63/79/63 36/86/36 64/80/64
f 64/80/64 36/86/36 37/87/37
f 64/80/64 37/87/37 65/81/65
f 65/81/65 37/87/37 28/88/28
f 65/81/65 28/88/28 66/82/66
f 66/82/66 28/88/28 27/89/27
f 66/82/66 27/89/27 67/83/67
f 31/90/31 15/91/15 4/92/4
f 4/92/4 6/93/6 31/90/31
f 42/42/42 38/38/38 39/39/39
f 39/39/39 40/40/40 42/42/42
f 22/22/68 21/21/69 68/94/70 69/95/71
f 27/27/72 25/25/73 70/96/74 71/97/75
f 21/66/69 57/60/76 72/98/77 68/99/70
f 23/23/78 22/22/68 69/95/71 73/100/79
f 57/60/76 56/59/80 74/101/81 72/98/77
f 67/83/82 27/89/72 71/102/75 75/103/83
f 25/25/73 23/23/78 73/100/79 70/96/74
f 56/59/80 67/83/82 75/103/83 74/101/81
f 70/96/84 73/100/85 76/104/86 77/105/87
f 69/95/88 68/94/89 78/106/90 79/107/91
f 72/98/92 74/101/93 80/108/94 81/109/95
f 73/100/85 69/95/88 79/107/91 76/104/86
f 71/97/96 70/96/84 77/105/87 82/110/97
f 74/101/93 75/103/98 83/111/99 80/108/94
f 75/103/98 71/102/96 82/112/97 83/111/99
f 68/99/89 72/98/92 81/109/95 78/113/90
f 83/111/100 82/112/101 84/114/102
f 78/113/103 81/109/104 84/115/102
f 77/105/105 76/104/106 84/116/102
f 79/107/107 78/106/103 84/117/102
f 81/109/104 80/108/108 84/118/102
f 76/104/106 79/107/107 84/119/102
f 82/110/101 77/105/105 84/120/102
f 80/108/108 83/111/100 84/121/102
o model459.009
v 6.440700 -2.980900 -1.073496
v 5.824800 -2.990400 -1.063696
v 5.814400 -3.012000 -1.732296
v 6.430300 -3.002599 -1.742096
v 5.800600 -2.479100 -2.083996
v 6.416600 -2.469599 -2.093896
v 5.797200 -1.924500 -1.767196
v 6.413200 -1.915100 -1.777096
v 5.807600 -1.902799 -1.098596
v 6.423500 -1.893400 -1.108396
v 5.821400 -2.435700 -0.746796
v 6.437300 -2.426300 -0.756596
v 5.721700 -2.458700 -1.413996
v 6.516200 -2.446600 -1.426696
v 6.583800 -2.302700 -2.013696
v 7.053500 -2.383300 -2.037596
v 7.407700 -2.411999 -1.719096
v 6.273700 -2.217200 -1.661196
v 7.438800 -2.371800 -1.244496
v 6.304800 -2.176900 -1.186696
v 7.128700 -2.286299 -0.892096
v 6.659000 -2.205499 -0.868096
v 6.768900 -2.078900 -1.728896
v 6.627900 -2.040000 -1.568596
v 6.642100 -2.021700 -1.352796
v 6.982500 -2.115599 -1.739696
v 6.803100 -2.034799 -1.207996
v 7.143600 -2.128700 -1.594896
v 7.016700 -2.071399 -1.218896
v 7.157800 -2.110400 -1.379196
v 7.080100 -2.135600 -2.020096
v 6.643100 -2.060500 -1.997696
v 6.383500 -1.943499 -1.228296
v 6.713000 -1.970199 -0.931896
v 6.354500 -1.981000 -1.669796
v 7.438600 -2.124799 -1.282196
v 7.409600 -2.162300 -1.723696
v 7.150100 -2.045299 -0.954196
vt 0.140600 0.010100
vt 0.236100 0.010100
vt 0.236100 0.105600
vt 0.140600 0.105600
vt 0.236100 0.201200
vt 0.140600 0.201200
vt 0.236100 0.296800
vt 0.140600 0.296800
vt 0.236100 0.392300
vt 0.140600 0.392300
vt 0.236100 0.201200
vt 0.236100 0.105600
vt 0.140600 0.105600
vt 0.140600 0.201200
vt 0.236100 0.296800
vt 0.140600 0.296800
vt 0.140600 0.495800
vt 0.140600 0.408200
vt 0.252100 0.460800
vt 0.140600 0.495800
vt 0.140600 0.408200
vt 0.140600 0.495800
vt 0.140600 0.408200
vt 0.140600 0.495800
vt 0.140600 0.408200
vt 0.140600 0.495800
vt 0.140600 0.408200
vt 0.140600 0.408200
vt 0.140600 0.495800
vt 0.140600 0.408200
vt 0.140600 0.495800
vt 0.252100 0.460800
vt 0.140600 0.408200
vt 0.140600 0.495800
vt 0.140600 0.408200
vt 0.140600 0.495800
vt 0.140600 0.408200
vt 0.140600 0.495800
vt 0.140600 0.408200
vt 0.140600 0.495800
vt 0.140600 0.495800
vt 0.140600 0.408200
vt 0.041000 0.199200
vt 0.050900 0.199200
vt 0.057800 0.206100
vt 0.034100 0.206100
vt 0.057800 0.215900
vt 0.034100 0.215900
vt 0.050900 0.222900
vt 0.041000 0.222900
vt 0.006400 0.574000
vt 0.076300 0.504100
vt 0.175100 0.504100
vt 0.006400 0.672800
vt 0.244900 0.574000
vt 0.076300 0.742600
vt 0.244900 0.672800
vt 0.175100 0.742600
vt 0.018200 0.277500
vt 0.018200 0.238800
vt 0.081500 0.221000
vt 0.081500 0.298100
vt 0.121100 0.216000
vt 0.121100 0.303100
vt 0.018200 0.277500
vt 0.018200 0.238800
vt 0.081500 0.221000
vt 0.081500 0.298100
vt 0.121100 0.216000
vt 0.121100 0.303100
vt 0.018200 0.277500
vt 0.018200 0.238800
vt 0.081500 0.221000
vt 0.081500 0.298100
vt 0.121100 0.216000
vt 0.121100 0.303100
vt 0.018200 0.374400
vt 0.018200 0.334800
vt 0.081500 0.318900
vt 0.081500 0.390200
vt 0.121100 0.311000
vt 0.121100 0.398100
vt 0.081500 0.097200
vt 0.121100 0.097200
vt 0.121100 0.113000
vt 0.081500 0.113000
vt 0.018200 0.113000
vt 0.018200 0.097200
vt 0.081500 0.127200
vt 0.121100 0.120900
vt 0.121100 0.208100
vt 0.081500 0.201700
vt 0.018200 0.183600
vt 0.018200 0.144900
vt 0.081500 0.408800
vt 0.121100 0.400200
vt 0.121100 0.499100
vt 0.081500 0.490500
vt 0.018200 0.472100
vt 0.018200 0.427100
vt 0.081500 0.221000
vt 0.121100 0.216000
vt 0.121100 0.303100
vt 0.081500 0.298100
vt 0.018200 0.277500
vt 0.018200 0.238800
vn 0.587300 -0.694700 0.415300
vn -0.552100 -0.712200 0.433500
vn -0.564600 -0.738200 -0.369300
vn 0.574800 -0.720800 -0.387400
vn -0.579100 -0.035400 -0.814500
vn 0.553500 -0.018000 -0.832600
vn -0.587300 0.694700 -0.415300
vn 0.552200 0.712100 -0.433500
vn -0.574800 0.720800 0.387400
vn 0.564600 0.738200 0.369200
vn -0.553500 0.018000 0.832600
vn 0.579000 0.035300 0.814500
vn -0.999800 -0.015300 0.016000
vn 0.999800 0.015300 -0.016000
vn -0.453200 -0.564300 -0.690000
vn 0.169000 -0.671200 -0.721700
vn 0.638100 -0.709200 -0.299800
vn -0.864100 -0.451300 -0.222900
vn 0.679300 -0.656000 0.329000
vn -0.822900 -0.397800 0.405600
vn 0.268400 -0.542800 0.795800
vn -0.353700 -0.435600 0.827700
vn 0.184700 0.981500 -0.051000
vn 0.208200 0.975000 -0.078000
vn 0.206000 0.971900 -0.114100
vn 0.148800 0.987700 -0.049100
vn 0.178800 0.974100 -0.138700
vn 0.121600 0.989900 -0.073400
vn 0.143000 0.980200 -0.136900
vn 0.119300 0.986800 -0.109900
vn 0.338200 0.603400 -0.722200
vn -0.187600 0.694000 -0.695100
vn -0.500100 0.834600 0.230800
vn -0.103600 0.802500 0.587600
vn -0.535200 0.789500 -0.300500
vn 0.769700 0.616600 0.165800
vn 0.734800 0.571400 -0.365400
vn 0.422500 0.712000 0.560800
usemtl 05___Default.001
s 1
f 85/122/109 86/123/110 87/124/111
f 85/122/109 87/124/111 88/125/112
f 88/125/112 87/124/111 89/126/113
f 88/125/112 89/126/113 90/127/114
f 90/127/114 89/126/113 91/128/115
f 90/127/114 91/128/115 92/129/116
f 92/129/116 91/128/115 93/130/117
f 92/129/116 93/130/117 94/131/118
f 95/132/119 86/133/110 85/134/109
f 85/134/109 96/135/120 95/132/119
f 93/136/117 95/132/119 96/135/120
f 96/135/120 94/137/118 93/136/117
f 93/138/117 91/139/115 97/140/121
f 95/141/119 93/142/117 97/140/121
f 86/143/110 95/144/119 97/140/121
f 87/145/111 86/146/110 97/140/121
f 89/147/113 87/148/111 97/140/121
f 89/149/113 97/140/121 91/150/115
f 92/151/116 94/152/118 98/153/122
f 94/154/118 96/155/120 98/153/122
f 96/156/120 85/157/109 98/153/122
f 85/158/109 88/159/112 98/153/122
f 88/160/112 90/161/114 98/153/122
f 92/162/116 98/153/122 90/163/114
f 99/164/123 100/165/124 101/166/125
f 99/164/123 101/166/125 102/167/126
f 102/167/126 101/166/125 103/168/127
f 102/167/126 103/168/127 104/169/128
f 104/169/128 103/168/127 105/170/129
f 104/169/128 105/170/129 106/171/130
f 107/172/131 108/173/132 109/174/133
f 107/172/131 109/174/133 110/175/134
f 110/175/134 109/174/133 111/176/135
f 110/175/134 111/176/135 112/177/136
f 112/177/136 111/176/135 113/178/137
f 112/177/136 113/178/137 114/179/138
f 107/180/131 110/181/134 115/182/139
f 107/180/131 115/182/139 116/183/140
f 116/183/140 115/182/139 100/184/124
f 116/183/140 100/184/124 99/185/123
f 111/186/135 109/187/133 117/188/141
f 111/186/135 117/188/141 118/189/142
f 118/189/142 117/188/141 104/190/128
f 118/189/142 104/190/128 106/191/130
f 108/192/132 107/193/131 116/194/140
f 108/192/132 116/194/140 119/195/143
f 119/195/143 116/194/140 99/196/123
f 119/195/143 99/196/123 102/197/126
f 109/198/133 108/199/132 119/200/143
f 109/198/133 119/200/143 117/201/141
f 117/201/141 119/200/143 102/202/126
f 117/201/141 102/202/126 104/203/128
f 120/204/144 103/205/127 101/206/125
f 101/206/125 121/207/145 120/204/144
f 112/208/136 114/209/138 120/204/144
f 120/204/144 121/207/145 112/208/136
f 122/210/146 105/211/129 103/212/127
f 103/212/127 120/213/144 122/210/146
f 114/214/138 113/215/137 122/210/146
f 122/210/146 120/213/144 114/214/138
f 121/216/145 101/217/125 100/218/124
f 100/218/124 115/219/139 121/216/145
f 110/220/134 112/221/136 121/216/145
f 121/216/145 115/219/139 110/220/134
f 118/222/142 106/223/130 105/224/129
f 105/224/129 122/225/146 118/222/142
f 113/226/137 111/227/135 118/222/142
f 118/222/142 122/225/146 113/226/137
