# Blender v2.77 (sub 0) OBJ File: ''
# www.blender.org
mtllib kei spikes.mtl
o model459.006
v 1.099600 -0.935799 -1.345896
v 0.686200 -1.164099 -1.374596
v 0.712800 -1.510800 -1.941596
v 1.208300 -1.173299 -1.955196
v 1.385000 -1.536700 -2.744196
v 1.253200 -0.811800 -2.391396
v 1.362700 1.009501 -1.758094
v 1.129900 1.357300 -1.900894
v 1.433200 1.183600 -1.359094
v 1.559800 0.770200 -1.578694
v 1.313300 0.386600 -2.007595
v -0.241400 1.700400 -1.349394
v -0.231000 1.898199 -0.979594
v 0.184200 1.740401 -1.350194
v -0.402400 1.481800 -1.686794
v -1.019900 1.241101 -1.157894
v -0.587800 1.573401 -1.133394
v 0.208100 -1.084900 -1.800096
v 0.684000 -0.657699 -1.989796
v 0.534600 -1.014100 -1.752396
v 0.220000 -1.256500 -1.423796
v -0.117300 -1.022100 -1.735796
v -0.286200 -0.684499 -1.952296
v -0.245200 -1.175900 -1.350396
v -1.220800 0.598100 -0.253494
v -1.031100 1.068800 -0.595994
v -1.675500 1.376200 -0.509594
v -1.826800 0.825600 0.000506
v -1.864100 1.640400 -0.777694
v -3.435100 1.701800 -0.410894
v -1.943300 1.427000 -1.255494
v -2.067800 0.956101 -1.583494
v -1.192700 0.474400 -1.529094
v -0.414700 1.089600 -2.126494
v -0.434800 0.573700 -2.263195
v -0.838400 1.133900 -2.699594
v -0.829200 1.814801 -1.804994
v -1.324400 1.664301 -1.386394
v -0.868300 0.508400 -2.043195
v -1.565600 1.012900 -1.901794
v -0.292500 -1.523500 -1.915396
v -0.386700 -1.079400 -2.414396
v -0.743100 -0.400699 -1.863096
v -0.873000 -0.838600 -2.336296
v 0.769700 -1.064900 -2.444396
v 1.189700 -0.376400 -1.901896
v -0.897300 2.958401 -0.538694
v -0.505600 2.536699 -0.417394
v -0.551100 2.688101 0.041106
v -0.411300 2.311100 -0.310594
v -0.333900 2.492700 0.867306
v -0.099900 1.741899 -0.164394
v -1.102400 1.255199 0.622906
v -2.078300 1.934099 0.068206
v -1.540400 2.506399 -0.303294
v -1.395500 2.691401 -0.464394
v 1.588000 0.767801 -2.383194
v 0.971800 0.633800 -2.210995
v 1.314700 1.183001 -2.394794
v 0.743200 1.068100 -2.163094
v 0.419100 2.712300 -1.377494
v 0.555100 1.690800 -1.461594
v 0.049600 2.681000 -1.167094
v 0.756000 2.262400 -1.147594
v 0.736000 2.681601 -1.077694
v 0.244500 3.944201 -0.913194
v 0.461800 3.929300 -0.658894
v 0.004400 4.758900 -0.365694
v 0.054900 4.498699 -0.285794
v -1.568500 3.976400 1.073606
v -1.883900 3.722400 1.175606
v -2.061600 3.541200 1.340406
v -2.412700 2.735800 1.186606
v -1.510100 1.620800 1.292506
v -1.966400 3.848200 2.132806
v -2.058800 4.258300 2.392206
v -2.274800 4.043500 2.989406
v -2.122800 3.224300 2.752606
v -1.882700 2.432300 2.191606
v 1.061100 1.635000 -0.641694
v 1.351200 2.048201 -0.869194
v 0.811100 2.377199 -1.212394
v 1.620100 2.570400 -1.131294
v 1.092800 2.825300 -1.342794
v 1.917600 3.180599 -1.435494
v 1.375200 2.552300 -2.042394
v -1.622700 1.987601 -1.685994
v -1.300100 2.190501 -2.218994
v -1.387200 1.756300 -2.929894
v -1.847200 1.549700 -2.315394
v -1.287200 0.100701 -0.922096
v -2.175100 0.524700 -0.806095
v 0.194000 -1.432100 -2.507296
v -0.241700 -1.009099 -2.739096
v 0.184200 -0.260000 -2.320196
v 0.174200 -0.602100 -2.867496
v 0.615600 -0.995200 -2.759696
v 1.536600 1.192900 -2.050694
v 1.856500 1.512700 -2.597194
v -0.068300 3.841700 -0.746794
v -0.583800 3.601299 -0.012194
v 0.075200 2.630699 0.722006
v -0.015300 3.808901 0.654806
v -0.114100 5.072599 -0.007594
v -0.050300 4.478800 0.362506
v 1.367300 1.401400 -1.021294
v 1.723700 1.785500 -1.497094
v 0.983800 1.823201 -2.162594
v 1.922600 2.462000 -1.546294
v 1.028200 2.588200 -0.198194
v 0.768300 3.844900 0.086806
v 0.234200 1.474300 0.476706
v 0.717200 1.818501 -0.367494
v -1.364500 3.803200 1.414306
v -1.279300 3.538200 1.484706
v -0.845400 3.184500 1.671406
v -0.662200 -0.958000 -1.300096
v -0.796300 -1.198599 -1.903196
v -1.004600 -1.566800 -2.682196
v -2.127900 2.482300 -2.916094
v 0.163000 -1.248199 -3.611096
v 0.683000 1.465000 -1.824894
v 1.296600 1.483601 -0.862494
v 0.697500 1.898300 -0.604994
v 1.360000 1.591000 -0.565994
vt 0.690800 0.435100
vt 0.703000 0.480700
vt 0.606800 0.466700
vt 0.618400 0.401500
vt 0.534300 0.376400
vt 0.608500 0.344600
vt 0.291000 0.404200
vt 0.362000 0.456800
vt 0.288200 0.433000
vt 0.264500 0.400600
vt 0.306100 0.288500
vt 0.587300 0.523500
vt 0.574300 0.572300
vt 0.520800 0.523500
vt 0.631300 0.475400
vt 0.746900 0.437600
vt 0.684600 0.504400
vt 0.520800 0.042800
vt 0.449500 0.099300
vt 0.452300 0.054400
vt 0.520800 0.012800
vt 0.422900 0.027800
vt 0.589300 0.054400
vt 0.591700 0.094200
vt 0.618700 0.027800
vt 0.928000 0.184800
vt 0.972400 0.196300
vt 0.901400 0.211500
vt 0.877800 0.184400
vt 0.887700 0.233900
vt 0.716700 0.235900
vt 0.887500 0.261800
vt 0.877600 0.306400
vt 0.980300 0.245900
vt 0.979300 0.306200
vt 0.459700 0.332500
vt 0.493500 0.291000
vt 0.417600 0.291000
vt 0.455100 0.371900
vt 0.414300 0.375700
vt 0.416500 0.454500
vt 0.375000 0.439000
vt 0.465900 0.240100
vt 0.410500 0.212300
vt 0.459300 0.196400
vt 0.368400 0.144800
vt 0.417900 0.143100
vt 0.685800 0.241900
vt 0.703000 0.201600
vt 0.634200 0.218300
vt 0.684000 0.297300
vt 0.634500 0.269800
vt 0.672000 0.335300
vt 0.611100 0.331100
vt 0.634200 0.218300
vt 0.703000 0.201600
vt 0.685800 0.241900
vt 0.634500 0.269800
vt 0.684000 0.297300
vt 0.611100 0.331100
vt 0.672000 0.335300
vt 0.506200 0.706600
vt 0.541000 0.752900
vt 0.389900 0.752900
vt 0.419500 0.705900
vt 0.366300 0.698000
vt 0.422700 0.679300
vt 0.305500 0.648000
vt 0.441600 0.648000
vt 0.370100 0.514900
vt 0.522600 0.908400
vt 0.408100 0.991200
vt 0.472100 0.904200
vt 0.403100 0.904200
vt 0.526500 0.835300
vt 0.396100 0.835300
vt 0.529500 0.810200
vt 0.379800 0.805100
vt 0.540400 0.766100
vt 0.385900 0.767400
vt 0.531500 0.461500
vt 0.580200 0.448700
vt 0.585200 0.487200
vt 0.529100 0.508300
vt 0.583800 0.527900
vt 0.559700 0.557100
vt 0.877100 0.732300
vt 0.988800 0.732300
vt 0.976200 0.770200
vt 0.878200 0.771100
vt 0.950100 0.818400
vt 0.862900 0.847700
vt 0.921000 0.672100
vt 0.989700 0.704300
vt 0.884700 0.714000
vt 0.876500 0.681100
vt 0.733800 0.714000
vt 0.732000 0.668400
vt 0.642400 0.691000
vt 0.665300 0.673100
vt 0.208200 0.768300
vt 0.195900 0.805100
vt 0.194200 0.835300
vt 0.267000 0.904200
vt 0.333600 0.991200
vt 0.111400 0.855100
vt 0.065600 0.805100
vt 0.044600 0.904200
vt 0.112100 0.948300
vt 0.213900 0.981800
vt 0.105000 0.505400
vt 0.139500 0.562900
vt 0.186300 0.536200
vt 0.120200 0.496400
vt 0.234400 0.484300
vt 0.156600 0.474600
vt 0.282700 0.407500
vt 0.176400 0.407500
vt 0.332000 0.414200
vt 0.354200 0.357300
vt 0.354900 0.291000
vt 0.345800 0.233400
vt 0.324600 0.164000
vt 0.951300 0.381500
vt 0.942000 0.439900
vt 0.878400 0.430500
vt 0.860300 0.374800
vt 0.720400 0.370400
vt 0.876700 0.317800
vt 0.132400 0.129800
vt 0.075500 0.080300
vt 0.144900 0.032900
vt 0.181500 0.111300
vt 0.221200 0.030300
vt 0.221100 0.098800
vt 0.295400 0.032000
vt 0.260700 0.110700
vt 0.367000 0.079500
vt 0.310300 0.129200
vt 0.572300 0.613100
vt 0.575000 0.683300
vt 0.531500 0.672100
vt 0.531500 0.611500
vt 0.453800 0.611200
vt 0.559000 0.569600
vt 0.733900 0.732300
vt 0.733800 0.748900
vt 0.745700 0.840200
vt 0.804600 0.956400
vt 0.701600 0.914100
vt 0.649500 0.752700
vt 0.662200 0.772500
vt 0.596500 0.805000
vt 0.641500 0.872000
vt 0.167500 0.275300
vt 0.122700 0.245400
vt 0.096700 0.273800
vt 0.124400 0.328400
vt 0.059600 0.311000
vt 0.096800 0.407500
vt 0.043500 0.371500
vt 0.032400 0.407500
vt 0.195100 0.348700
vt 0.214300 0.315300
vt 0.989700 0.604700
vt 0.854100 0.560600
vt 0.704400 0.599200
vt 0.588900 0.661600
vt 0.688000 0.557200
vt 0.798400 0.482300
vt 0.919400 0.455200
vt 0.937800 0.555000
vt 0.207200 0.753000
vt 0.185100 0.717600
vt 0.072100 0.717500
vt 0.190500 0.682500
vt 0.099100 0.693000
vt 0.206100 0.648000
vt 0.031600 0.648000
vt 0.111200 0.564900
vt 0.703000 0.480700
vt 0.690800 0.435100
vt 0.618400 0.401500
vt 0.606800 0.466700
vt 0.534300 0.376400
vt 0.672000 0.355000
vt 0.672000 0.355000
vt 0.608500 0.344600
vt 0.929500 0.907900
vt 0.927900 0.982900
vt 0.880300 0.868100
vt 0.534300 0.279000
vt 0.534300 0.279000
vt 0.460000 0.508900
vt 0.238300 0.291000
vt 0.973300 0.336300
vt 0.221600 0.205000
vt 0.069700 0.493200
vt 0.049600 0.446000
vt 0.622100 0.611400
vt 0.280500 0.492700
vt 0.189800 0.524200
vt 0.925400 0.928200
vt 0.824100 0.980000
vt 0.851400 0.928200
vn 0.787600 -0.490900 0.372400
vn 0.034800 -0.979200 0.200000
vn -0.409300 -0.907200 0.097500
vn 0.858400 -0.396000 0.326100
vn 0.495000 -0.536900 -0.683100
vn 0.593200 0.568200 -0.570300
vn 0.950800 0.307700 -0.035800
vn 0.741600 0.467700 -0.481000
vn 0.963500 -0.070800 -0.258000
vn 0.813900 0.295300 -0.500300
vn 0.723700 -0.548300 -0.419100
vn -0.241800 0.772100 -0.587600
vn -0.000800 0.647500 -0.762000
vn -0.411500 0.257300 -0.874300
vn 0.246400 0.959800 -0.134400
vn -0.394200 0.884700 -0.248900
vn -0.539200 0.497300 -0.679700
vn 0.023500 -0.974900 -0.221400
vn 0.074400 0.429600 -0.899900
vn -0.451800 -0.712100 -0.537400
vn 0.007900 -0.906500 -0.422100
vn 0.345800 -0.675800 -0.651000
vn -0.081400 0.324500 -0.942400
vn -0.050200 -0.984600 0.167500
vn 0.236000 -0.258600 0.936700
vn -0.025600 -0.319800 0.947100
vn -0.478400 0.644200 0.596800
vn -0.023100 -0.151400 0.988200
vn 0.213500 0.968400 0.128800
vn -0.889300 0.390300 0.238200
vn 0.002800 0.748000 -0.663700
vn -0.346700 -0.083600 -0.934200
vn -0.604100 -0.570900 -0.556000
vn 0.760100 0.371500 -0.533200
vn 0.256400 -0.472200 -0.843400
vn 0.260500 -0.166600 -0.951000
vn 0.581700 0.795900 0.167600
vn -0.331500 0.395700 0.856500
vn -0.468100 -0.669100 -0.577200
vn -0.874400 -0.485000 0.014100
vn 0.466900 -0.880300 0.084700
vn 0.656500 0.146300 -0.740000
vn -0.755100 0.576900 -0.311400
vn -0.645900 0.561500 -0.517200
vn -0.661400 0.123600 -0.739700
vn 0.776900 0.528900 -0.341700
vn 0.196500 0.756700 -0.623600
vn -0.033900 0.888800 -0.457100
vn 0.812500 0.573700 -0.103400
vn 0.157000 0.480900 0.862600
vn 0.918700 0.056900 0.390800
vn -0.120100 -0.426200 0.896600
vn -0.065300 -0.859500 0.506900
vn -0.941000 -0.241100 -0.237400
vn -0.756800 0.231400 -0.611300
vn -0.634100 0.324000 -0.702100
vn 0.645100 -0.529100 -0.551200
vn -0.225500 -0.346500 -0.910500
vn -0.440900 0.290900 -0.849100
vn -0.344200 0.271800 -0.898700
vn 0.119700 0.249700 -0.960900
vn -0.559800 0.313200 -0.767200
vn -0.648600 0.152800 -0.745600
vn 0.431000 0.837100 -0.336900
vn 0.824300 0.240300 -0.512700
vn 0.122100 0.473200 -0.872400
vn 0.790800 0.463600 -0.399600
vn -0.208400 0.955400 0.209200
vn 0.017000 0.887400 -0.460700
vn 0.045100 0.927400 -0.371300
vn -0.732800 0.515900 -0.443700
vn -0.831600 0.429300 -0.352200
vn -0.985900 -0.089100 -0.141800
vn -0.141300 -0.864400 0.482600
vn -0.085500 0.876300 0.474100
vn -0.300800 0.541600 0.785000
vn -0.302400 0.612800 0.730100
vn -0.239700 -0.417700 0.876400
vn -0.148000 -0.678900 0.719200
vn 0.747400 0.062400 0.661400
vn 0.399400 0.243600 0.883800
vn -0.725500 0.625300 0.287400
vn 0.388500 0.227400 0.892900
vn -0.620700 0.745600 0.242600
vn 0.551400 0.830100 0.082800
vn -0.020600 0.363600 -0.931300
vn -0.505700 0.493400 0.707700
vn 0.485200 0.874400 0.001800
vn 0.175700 -0.037900 -0.983700
vn -0.878400 -0.466700 -0.103400
vn -0.379000 -0.924000 -0.051100
vn -0.561800 -0.827300 -0.008300
vn 0.029900 -0.985200 0.169000
vn -0.971200 -0.102200 -0.215400
vn -0.015600 0.861500 -0.507600
vn -0.019900 0.818400 -0.574300
vn 0.967900 -0.070800 -0.241200
vn 0.774400 0.226000 0.591000
vn 0.622300 0.571700 -0.534700
vn -0.713300 0.289700 -0.638200
vn -0.988000 0.133600 0.077500
vn -0.142500 -0.159100 0.976900
vn -0.136000 0.215900 0.966900
vn -0.166600 0.984700 -0.050500
vn -0.139400 0.471000 0.871100
vn 0.826600 -0.199300 0.526400
vn 0.929200 -0.339800 -0.145300
vn -0.154600 0.142700 -0.977600
vn 0.982100 -0.124600 -0.141500
vn 0.968900 0.028200 0.245800
vn 0.886600 0.362100 0.287900
vn -0.034000 -0.371700 0.927700
vn 0.696100 -0.410800 0.588800
vn 0.790000 0.590100 0.166600
vn 0.775700 0.587800 0.229900
vn 0.847300 0.286100 0.447400
vn -0.762600 -0.524400 0.378800
vn -0.827200 -0.401000 0.393700
vn -0.516100 -0.549700 -0.656900
vn -0.584200 0.613700 -0.531000
vn -0.024200 -0.272500 -0.961800
vn -0.843200 0.269500 -0.465200
vn 0.406700 0.827700 -0.386800
usemtl None
s 1
f 1/1/1 2/2/2 3/3/3
f 1/1/1 3/3/3 4/4/4
f 4/4/4 3/3/3 5/5/5
f 4/4/4 5/5/5 6/6/6
f 7/7/7 8/8/8 9/9/9
f 7/7/7 9/9/9 10/10/10
f 10/10/10 11/11/11 7/7/7
f 12/12/12 13/13/13 14/14/14
f 15/15/15 16/16/16 17/17/17
f 17/17/17 12/12/12 15/15/15
f 18/18/18 19/19/19 20/20/20
f 20/20/20 21/21/21 18/18/18
f 21/21/21 20/20/20 2/22/2
f 22/23/22 23/24/23 18/18/18
f 18/18/18 24/25/24 22/23/22
f 24/25/24 18/18/18 21/21/21
f 25/26/25 26/27/26 27/28/27
f 25/26/25 27/28/27 28/29/28
f 28/29/28 27/28/27 29/30/29
f 28/29/28 29/30/29 30/31/30
f 30/31/30 29/30/29 31/32/31
f 30/31/30 31/32/31 32/33/32
f 32/33/32 31/32/31 16/34/16
f 32/33/32 16/34/16 33/35/33
f 34/36/34 35/37/35 36/38/36
f 34/36/34 36/38/36 15/39/15
f 15/39/15 36/38/36 37/40/37
f 15/39/15 37/40/37 16/41/16
f 16/41/16 37/40/37 38/42/38
f 36/38/36 35/37/35 39/43/39
f 36/38/36 39/43/39 40/44/40
f 40/44/40 39/43/39 33/45/33
f 40/44/40 33/45/33 38/46/38
f 38/46/38 33/45/33 16/47/16
f 22/48/22 24/49/24 41/50/41
f 22/48/22 41/50/41 23/51/23
f 23/51/23 41/50/41 42/52/42
f 23/51/23 42/52/42 43/53/43
f 43/53/43 42/52/42 44/54/44
f 3/55/3 2/56/2 20/57/20
f 3/55/3 20/57/20 45/58/45
f 45/58/45 20/57/20 19/59/19
f 45/58/45 19/59/19 6/60/6
f 6/60/6 19/59/19 46/61/46
f 13/62/13 12/63/12 47/64/47
f 13/62/13 47/64/47 48/65/48
f 48/65/48 47/64/47 49/66/49
f 48/65/48 49/66/49 50/67/50
f 50/67/50 49/66/49 51/68/51
f 50/67/50 51/68/51 52/69/52
f 52/69/52 51/68/51 53/70/53
f 26/71/26 53/72/53 27/73/27
f 27/73/27 53/72/53 54/74/54
f 27/73/27 54/74/54 16/75/16
f 16/75/16 54/74/54 55/76/55
f 16/75/16 55/76/55 17/77/17
f 17/77/17 55/76/55 56/78/56
f 17/77/17 56/78/56 12/79/12
f 12/79/12 56/78/56 47/80/47
f 57/81/57 11/82/11 58/83/58
f 57/81/57 58/83/58 59/84/59
f 59/84/59 58/83/58 60/85/60
f 59/84/59 60/85/60 8/86/8
f 61/87/61 62/88/62 14/89/14
f 61/87/61 14/89/14 63/90/63
f 63/90/63 14/89/14 13/91/13
f 63/90/63 13/91/13 48/92/48
f 64/93/64 62/94/62 61/95/61
f 64/93/64 61/95/61 65/96/65
f 65/96/65 61/95/61 66/97/66
f 65/96/65 66/97/66 67/98/67
f 67/98/67 66/97/66 68/99/68
f 67/98/67 68/99/68 69/100/69
f 70/101/70 47/80/47 56/78/56
f 70/101/70 56/78/56 71/102/71
f 71/102/71 56/78/56 55/76/55
f 71/102/71 55/76/55 72/103/72
f 72/103/72 55/76/55 54/74/54
f 72/103/72 54/74/54 73/104/73
f 73/104/73 54/74/54 53/72/53
f 73/104/73 53/72/53 74/105/74
f 75/106/75 76/107/76 72/103/72
f 75/106/75 72/103/72 77/108/77
f 77/108/77 72/103/72 73/104/73
f 77/108/77 73/104/73 78/109/78
f 78/109/78 73/104/73 79/110/79
f 64/111/64 80/112/80 81/113/81
f 64/111/64 81/113/81 82/114/82
f 82/114/82 81/113/81 83/115/83
f 82/114/82 83/115/83 84/116/84
f 84/116/84 83/115/83 85/117/85
f 84/116/84 85/117/85 86/118/86
f 87/119/87 38/42/38 37/40/37
f 87/119/87 37/40/37 88/120/88
f 88/120/88 37/40/37 36/38/36
f 88/120/88 36/38/36 89/121/89
f 89/121/89 36/38/36 40/44/40
f 89/121/89 40/44/40 90/122/90
f 90/122/90 40/44/40 38/46/38
f 90/122/90 38/46/38 87/123/87
f 91/124/91 25/125/25 28/126/28
f 91/124/91 28/126/28 92/127/92
f 92/127/92 28/126/28 30/128/30
f 92/127/92 30/128/30 32/129/32
f 93/130/93 18/131/18 23/132/23
f 93/130/93 23/132/23 94/133/94
f 94/133/94 23/132/23 95/134/95
f 94/133/94 95/134/95 96/135/96
f 96/135/96 95/134/95 19/136/19
f 96/135/96 19/136/19 97/137/97
f 97/137/97 19/136/19 18/138/18
f 97/137/97 18/138/18 93/139/93
f 7/140/7 11/141/11 57/142/57
f 7/140/7 57/142/57 98/143/98
f 98/143/98 57/142/57 99/144/99
f 98/143/98 99/144/99 8/145/8
f 66/146/66 61/87/61 63/90/63
f 66/146/66 63/90/63 100/147/100
f 100/147/100 63/90/63 48/92/48
f 100/147/100 48/92/48 101/148/101
f 101/148/101 48/92/48 102/149/102
f 101/148/101 102/149/102 103/150/103
f 68/151/68 66/146/66 100/147/100
f 68/151/68 100/147/100 69/152/69
f 69/152/69 100/147/100 101/148/101
f 69/152/69 101/148/101 104/153/104
f 104/153/104 101/148/101 105/154/105
f 81/155/81 80/156/80 106/157/106
f 81/155/81 106/157/106 107/158/107
f 107/158/107 106/157/106 9/159/9
f 107/158/107 9/159/9 108/160/108
f 108/160/108 9/159/9 8/161/8
f 108/160/108 8/161/8 60/162/60
f 107/158/107 108/160/108 86/118/86
f 107/158/107 86/118/86 109/163/109
f 109/163/109 86/118/86 85/117/85
f 109/163/109 85/117/85 83/164/83
f 80/165/80 64/93/64 65/96/65
f 80/165/80 65/96/65 110/166/110
f 110/166/110 65/96/65 67/98/67
f 110/166/110 67/98/67 111/167/111
f 111/167/111 67/98/67 69/100/69
f 111/167/111 69/100/69 104/168/104
f 111/167/111 103/169/103 102/170/102
f 111/167/111 102/170/102 110/166/110
f 110/166/110 102/170/102 112/171/112
f 110/166/110 112/171/112 113/172/113
f 49/66/49 47/64/47 70/173/70
f 49/66/49 70/173/70 114/174/114
f 114/174/114 70/173/70 76/175/76
f 114/174/114 76/175/76 115/176/115
f 115/176/115 76/175/76 75/177/75
f 115/176/115 75/177/75 116/178/116
f 116/178/116 75/177/75 77/179/77
f 116/178/116 77/179/77 78/180/78
f 24/181/24 117/182/117 118/183/118
f 118/183/118 41/184/41 24/181/24
f 41/184/41 118/183/118 119/185/119
f 46/186/46 1/1/1 4/4/4
f 4/4/4 6/6/6 46/186/46
f 118/183/118 117/182/117 43/187/43
f 43/187/43 44/188/44 118/183/118
f 44/188/44 119/185/119 118/183/118
f 52/189/52 112/190/112 102/149/102
f 102/149/102 50/191/50 52/189/52
f 50/191/50 102/149/102 48/92/48
f 16/34/16 31/32/31 29/30/29
f 29/30/29 27/28/27 16/34/16
f 42/52/42 41/50/41 119/192/119
f 119/192/119 44/54/44 42/52/42
f 5/193/5 3/55/3 45/58/45
f 45/58/45 6/60/6 5/193/5
f 99/194/99 57/81/57 59/84/59
f 59/84/59 8/86/8 99/194/99
f 76/107/76 70/101/70 71/102/71
f 71/102/71 72/103/72 76/107/76
f 73/104/73 74/105/74 79/110/79
f 120/195/120 87/119/87 88/120/88
f 88/120/88 89/121/89 120/195/120
f 120/195/120 89/121/89 90/122/90
f 90/122/90 87/123/87 120/195/120
f 32/129/32 33/196/33 91/124/91
f 91/124/91 92/127/92 32/129/32
f 121/197/121 93/130/93 94/133/94
f 94/133/94 96/135/96 121/197/121
f 121/197/121 96/135/96 97/137/97
f 97/137/97 93/139/93 121/197/121
f 7/140/7 98/143/98 8/145/8
f 103/150/103 105/154/105 101/148/101
f 82/114/82 84/116/84 86/118/86
f 86/118/86 108/160/108 82/114/82
f 62/198/62 64/111/64 82/114/82
f 82/114/82 108/160/108 62/198/62
f 122/199/122 62/198/62 108/160/108
f 108/160/108 60/162/60 122/199/122
f 109/163/109 83/164/83 81/155/81
f 81/155/81 107/158/107 109/163/109
f 111/167/111 104/168/104 105/200/105
f 105/200/105 103/169/103 111/167/111
f 110/166/110 113/172/113 80/165/80
f 49/66/49 114/174/114 115/176/115
f 115/176/115 116/178/116 49/66/49
f 51/68/51 49/66/49 116/178/116
f 116/178/116 53/70/53 51/68/51
f 53/70/53 116/178/116 74/201/74
f 79/202/79 74/201/74 116/178/116
f 116/178/116 78/180/78 79/202/79
f 123/203/123 124/204/123 125/205/123
