# Blender v2.77 (sub 0) OBJ File: ''
# www.blender.org
mtllib kei footleft.mtl
o model459.013
v 1.371100 -15.035000 -1.803100
v 2.075900 -14.995200 -1.800200
v 2.519700 -14.965700 -1.173100
v 0.874100 -15.049900 -1.144600
v 2.541000 -14.946600 -0.399900
v 0.845000 -15.047300 -0.137300
v 0.765700 -15.031200 0.443600
v 2.585600 -14.925000 0.382500
v 0.809500 -15.004800 0.896500
v 2.508600 -14.899200 0.963100
v 1.298700 -14.940900 1.556500
v 2.001300 -14.895300 1.619400
v 1.267900 -14.355600 1.597500
v 1.975700 -14.312300 1.612100
v 1.950300 -14.097500 1.075900
v 1.271100 -14.109200 1.065600
v 1.918900 -13.954700 0.495700
v 1.299800 -13.991899 0.504400
v 1.232600 -13.276500 -0.283400
v 0.892700 -13.297000 -0.718400
v 0.842200 -14.014600 -0.166700
v 0.978400 -13.279300 -1.322800
v 0.857100 -14.385500 -1.228100
v 1.436900 -13.234500 -1.750700
v 1.278900 -14.388599 -1.851200
v 2.198400 -12.549200 -0.490100
v 1.878100 -12.561000 -0.711300
v 1.640600 -12.585200 -0.522600
v 1.774600 -12.593000 -0.189000
v 1.353800 -12.610500 -0.564000
v 1.152100 -12.649900 -0.241500
v 1.181500 -12.622000 -0.812200
v 0.838400 -12.671500 -0.703900
v 1.232300 -12.611800 -1.157699
v 0.930900 -12.652900 -1.332700
v 1.501600 -12.583900 -1.383999
v 1.383300 -12.605100 -1.722800
v 1.759900 -12.561399 -1.347399
v 2.016700 -12.547900 -1.646000
v 1.933400 -12.550200 -1.082200
v 2.297100 -12.529800 -1.160599
v 2.222000 -13.195800 -0.536000
v 1.803500 -13.223000 -0.212700
v 2.048500 -13.177600 -1.672500
v 2.381800 -13.171900 -1.148800
v 2.564300 -14.312201 0.939300
v 2.622600 -14.339399 0.352300
v 2.601000 -14.358800 -0.412000
v 2.590900 -14.312099 -1.217100
v 2.086100 -14.336300 -1.831600
v 2.394800 -14.103900 0.470800
v 2.430900 -13.927500 -0.197400
v 0.814400 -14.515800 -0.152300
v 0.718000 -14.474200 0.425600
v 0.765100 -14.254300 0.446600
v 0.769000 -14.421400 0.934500
v 1.560150 -12.585751 -0.947675
vt 0.556600 0.993000
vt 0.634200 0.996500
vt 0.684300 0.915100
vt 0.521800 0.901200
vt 0.685100 0.798200
vt 0.509900 0.759300
vt 0.510200 0.663200
vt 0.684400 0.679700
vt 0.509100 0.601000
vt 0.680500 0.598900
vt 0.540200 0.510400
vt 0.629700 0.504500
vt 0.690900 0.557600
vt 0.800100 0.557600
vt 0.800100 0.620000
vt 0.690900 0.620000
vt 0.800100 0.698000
vt 0.690900 0.698000
vt 0.690900 0.830600
vt 0.897900 0.680000
vt 0.815700 0.758000
vt 0.815700 0.800000
vt 0.884000 0.750700
vt 0.815700 0.874900
vt 0.930000 0.891100
vt 0.815700 0.932000
vt 0.923400 0.971000
vt 0.381500 0.996100
vt 0.362700 0.996100
vt 0.362700 0.988100
vt 0.381500 0.988100
vt 0.362700 0.964000
vt 0.381500 0.964000
vt 0.362700 0.956000
vt 0.381500 0.956000
vt 0.362700 0.908200
vt 0.381500 0.908200
vt 0.362700 0.835700
vt 0.381500 0.835700
vt 0.362700 0.811600
vt 0.381500 0.811600
vt 0.362700 0.803600
vt 0.381500 0.803600
vt 0.362700 0.795600
vt 0.381500 0.795600
vt 0.494300 0.996100
vt 0.494300 0.988100
vt 0.494300 0.964000
vt 0.494300 0.956000
vt 0.494300 0.908200
vt 0.494300 0.835700
vt 0.494300 0.811600
vt 0.494300 0.803600
vt 0.494300 0.795600
vt 0.937000 0.547400
vt 0.995100 0.550200
vt 0.995100 0.632800
vt 0.937000 0.632300
vt 0.995100 0.704400
vt 0.937000 0.704700
vt 0.995100 0.799400
vt 0.937000 0.800300
vt 0.995100 0.894800
vt 0.930000 0.900500
vt 0.995100 0.971000
vt 0.923400 0.971000
vt 0.914400 0.611900
vt 0.897900 0.683500
vt 0.914100 0.689200
vt 0.815700 0.761200
vt 0.815700 0.804900
vt 0.895800 0.764100
vt 0.815700 0.882500
vt 0.815700 0.932000
vt 0.995100 0.882800
vt 0.995100 0.759700
vt 0.941600 0.760700
vt 0.939200 0.688700
vt 0.918800 0.685800
vt 0.937100 0.626100
vt 0.911900 0.610200
vt 0.937000 0.546500
vt 0.995100 0.690100
vt 0.995100 0.634600
vt 0.995100 0.555300
vt 0.800100 0.560700
vt 0.690900 0.560700
vt 0.690900 0.503000
vt 0.800100 0.503000
vt 0.800100 0.830600
vt 0.885700 0.576200
vt 0.885700 0.682400
vt 0.817100 0.682400
vt 0.817100 0.576200
vt 0.817100 0.503000
vt 0.885700 0.503000
vt 0.995100 0.971000
vt 0.362700 0.795600
vt 0.362700 0.811600
vt 0.362700 0.964000
vt 0.362700 0.835700
vt 0.362700 0.956000
vt 0.362700 0.803600
vt 0.362700 0.908200
vt 0.362700 0.988100
vn -0.302000 -0.675800 -0.672400
vn 0.367500 -0.635900 -0.678600
vn 0.705300 -0.677200 -0.209600
vn -0.689200 -0.687500 -0.228700
vn 0.690100 -0.723700 -0.006300
vn -0.642600 -0.764700 -0.048600
vn -0.678200 -0.734600 0.018000
vn 0.720100 -0.692300 0.046600
vn -0.656500 -0.695600 0.292000
vn 0.691300 -0.643800 0.328200
vn -0.328600 -0.643800 0.691000
vn 0.346900 -0.571400 0.743800
vn -0.409200 0.430600 0.804400
vn 0.317200 0.503100 0.803900
vn 0.171300 0.937900 0.301800
vn -0.303600 0.905200 0.297400
vn 0.131500 0.861300 0.490800
vn -0.324900 0.858600 0.396500
vn -0.528000 0.310100 0.790600
vn -0.985100 0.033400 0.168700
vn -0.937600 0.309400 0.158800
vn -0.882600 -0.015600 -0.469800
vn -0.942000 0.012700 -0.335300
vn -0.303500 0.046900 -0.951700
vn -0.476900 0.012900 -0.878900
vn 0.613500 0.649300 0.449600
vn -0.058900 0.997800 0.032000
vn -0.082700 0.995000 0.055300
vn 0.165800 0.613900 0.771700
vn -0.111300 0.992400 0.051800
vn -0.466100 0.537400 0.702800
vn -0.134600 0.990600 0.024600
vn -0.818400 0.539300 0.198300
vn -0.131100 0.991300 -0.007000
vn -0.738000 0.561800 -0.373900
vn -0.101300 0.994500 -0.027400
vn -0.291900 0.608600 -0.737900
vn -0.072400 0.997200 -0.018500
vn 0.389300 0.656200 -0.646400
vn -0.054300 0.998500 0.008500
vn 0.693600 0.704900 -0.148400
vn 0.836300 0.279500 0.471600
vn 0.214100 0.410700 0.886300
vn 0.521700 0.107500 -0.846300
vn 0.968600 0.168400 -0.182700
vn 0.817800 0.440200 0.370700
vn 0.958700 0.277300 0.063800
vn 0.991200 0.131000 -0.016200
vn 0.949500 0.048000 -0.310100
vn 0.431900 0.044000 -0.900900
vn 0.573400 0.763300 0.297600
vn 0.932200 0.349600 0.093500
vn -0.994700 -0.007400 -0.102700
vn -0.998900 0.044400 -0.016400
vn -0.801400 0.576500 0.159000
vn -0.866200 0.348600 0.358100
vn -0.089100 0.995900 0.015600
vn -0.089100 0.995900 0.016000
vn -0.089400 0.995900 0.016000
vn -0.089000 0.995900 0.016200
vn -0.089300 0.995900 0.016200
vn -0.089900 0.995800 0.015900
vn -0.089600 0.995900 0.015700
vn -0.089500 0.995900 0.016200
vn -0.089600 0.995900 0.016100
usemtl None
s 1
f 1/1/1 2/2/2 3/3/3
f 1/1/1 3/3/3 4/4/4
f 4/4/4 3/3/3 5/5/5
f 4/4/4 5/5/5 6/6/6
f 6/6/6 5/5/5 7/7/7
f 7/7/7 5/5/5 8/8/8
f 7/7/7 8/8/8 9/9/9
f 9/9/9 8/8/8 10/10/10
f 9/9/9 10/10/10 11/11/11
f 11/11/11 10/10/10 12/12/12
f 13/13/13 14/14/14 15/15/15
f 13/13/13 15/15/15 16/16/16
f 16/16/16 15/15/15 17/17/17
f 16/16/16 17/17/17 18/18/18
f 18/18/18 17/17/17 19/19/19
f 18/20/18 19/21/19 20/22/20
f 18/20/18 20/22/20 21/23/21
f 21/23/21 20/22/20 22/24/22
f 21/23/21 22/24/22 23/25/23
f 23/25/23 22/24/22 24/26/24
f 23/25/23 24/26/24 25/27/25
f 26/28/26 27/29/27 28/30/28
f 26/28/26 28/30/28 29/31/29
f 29/31/29 28/30/28 30/32/30
f 29/31/29 30/32/30 31/33/31
f 31/33/31 30/32/30 32/34/32
f 31/33/31 32/34/32 33/35/33
f 33/35/33 32/34/32 34/36/34
f 33/35/33 34/36/34 35/37/35
f 35/37/35 34/36/34 36/38/36
f 35/37/35 36/38/36 37/39/37
f 37/39/37 36/38/36 38/40/38
f 37/39/37 38/40/38 39/41/39
f 39/41/39 38/40/38 40/42/40
f 39/41/39 40/42/40 41/43/41
f 41/43/41 40/42/40 27/44/27
f 41/43/41 27/44/27 26/45/26
f 42/46/42 26/28/26 29/31/29
f 42/46/42 29/31/29 43/47/43
f 43/47/43 29/31/29 31/33/31
f 43/47/43 31/33/31 19/48/19
f 19/48/19 31/33/31 33/35/33
f 19/48/19 33/35/33 20/49/20
f 20/49/20 33/35/33 35/37/35
f 20/49/20 35/37/35 22/50/22
f 22/50/22 35/37/35 37/39/37
f 22/50/22 37/39/37 24/51/24
f 24/51/24 37/39/37 39/41/39
f 24/51/24 39/41/39 44/52/44
f 44/52/44 39/41/39 41/43/41
f 44/52/44 41/43/41 45/53/45
f 45/53/45 41/43/41 26/45/26
f 45/53/45 26/45/26 42/54/42
f 14/55/14 12/56/12 10/57/10
f 14/55/14 10/57/10 46/58/46
f 46/58/46 10/57/10 8/59/8
f 46/58/46 8/59/8 47/60/47
f 47/60/47 8/59/8 5/61/5
f 47/60/47 5/61/5 48/62/48
f 48/62/48 5/61/5 3/63/3
f 48/62/48 3/63/3 49/64/49
f 49/64/49 3/63/3 2/65/2
f 49/64/49 2/65/2 50/66/50
f 15/67/15 14/55/14 46/58/46
f 15/67/15 46/58/46 17/68/17
f 17/68/17 46/58/46 51/69/51
f 17/68/17 51/69/51 43/70/43
f 43/70/43 51/69/51 42/71/42
f 51/69/51 46/58/46 47/60/47
f 51/69/51 47/60/47 52/72/52
f 52/72/52 47/60/47 48/62/48
f 52/72/52 48/62/48 49/64/49
f 42/71/42 51/69/51 52/72/52
f 42/71/42 52/72/52 45/73/45
f 45/73/45 52/72/52 49/64/49
f 45/73/45 49/64/49 44/74/44
f 44/74/44 49/64/49 50/66/50
f 23/25/23 4/75/4 6/76/6
f 23/25/23 6/76/6 53/77/53
f 53/77/53 6/76/6 54/78/54
f 53/77/53 54/78/54 21/23/21
f 21/23/21 54/78/54 55/79/55
f 21/23/21 55/79/55 18/20/18
f 18/20/18 55/79/55 56/80/56
f 18/20/18 56/80/56 16/81/16
f 16/81/16 56/80/56 13/82/13
f 54/78/54 6/76/6 7/83/7
f 54/78/54 7/83/7 56/80/56
f 56/80/56 7/83/7 9/84/9
f 56/80/56 9/84/9 13/82/13
f 13/82/13 9/84/9 11/85/11
f 14/86/14 13/87/13 11/88/11
f 11/88/11 12/89/12 14/86/14
f 17/17/17 43/90/43 19/19/19
f 25/91/25 24/92/24 44/93/44
f 44/93/44 50/94/50 25/91/25
f 25/91/25 50/94/50 2/95/2
f 2/95/2 1/96/1 25/91/25
f 23/25/23 25/27/25 1/97/1
f 1/97/1 4/75/4 23/25/23
f 23/25/23 53/77/53 21/23/21
f 54/78/54 56/80/56 55/79/55
f 27/44/57 40/42/58 57/98/59
f 38/40/60 36/38/61 57/99/59
f 30/32/62 28/30/63 57/100/59
f 36/38/61 34/36/64 57/101/59
f 32/34/65 30/32/62 57/102/59
f 40/42/58 38/40/60 57/103/59
f 34/36/64 32/34/65 57/104/59
f 28/30/63 27/29/57 57/105/59
