# Blender v2.77 (sub 0) OBJ File: ''
# www.blender.org
mtllib kei hair.mtl
o model459.004
v -0.617200 0.613200 0.635106
v -0.705600 1.178801 0.364806
v -1.072600 0.891500 0.061206
v 1.559800 0.770200 -1.578694
v 1.433200 1.183600 -1.359094
v 1.648400 0.855601 -1.277994
v 1.655700 0.080100 -1.399194
v 1.715000 0.145500 -1.029395
v 1.620800 -0.351900 -1.155496
v 1.682300 -0.267500 -0.783896
v -0.743100 -0.400699 -1.863096
v -0.662200 -0.958000 -1.300096
v -1.000100 -0.683100 -1.188696
v -1.083700 -0.021000 -1.667295
v -1.201000 -0.387399 -1.084096
v -1.192700 0.474400 -1.529094
v -1.287200 0.100701 -0.922096
v 1.435900 -0.652400 -1.251996
v 1.099600 -0.935799 -1.345896
v 1.189700 -0.376400 -1.901896
v 1.478400 -0.047300 -1.741495
v 1.313300 0.386600 -2.007595
v -0.241400 1.700400 -1.349394
v 0.184200 1.740401 -1.350194
v -0.402400 1.481800 -1.686794
v 0.174000 1.505501 -1.854394
v -0.414700 1.089600 -2.126494
v 0.169100 1.100100 -2.240994
v -0.434800 0.573700 -2.263195
v 0.172500 0.505500 -2.397895
v -0.661200 -0.019300 -2.146496
v 0.184200 -0.260000 -2.320196
v -0.286200 -0.684499 -1.952296
v 0.555100 1.690800 -1.461594
v 0.683000 1.465000 -1.824894
v 0.743200 1.068100 -2.163094
v 0.971800 0.633800 -2.210995
v 1.031100 0.002000 -2.190496
v 0.684000 -0.657699 -1.989796
v -0.968400 0.228300 -1.917194
v -0.831700 1.151899 0.170106
v -1.125232 1.068800 -0.595994
v 1.733000 0.363401 -0.802694
v 1.650400 -0.067300 -0.461396
v -1.187900 -0.103100 -0.387596
v -1.220800 0.598100 -0.253494
v -1.231500 -0.304200 -0.708196
v -0.868300 0.508400 -2.043195
v 1.367300 1.401400 -1.021294
v 1.061100 1.635000 -0.641694
v 1.657600 0.778000 -0.491494
v 1.646700 0.867000 -0.934694
v 1.678800 0.565200 -0.290194
v -1.102400 1.255199 0.622906
v 1.318882 0.792284 -1.942750
v 1.157712 1.230761 -1.767786
v 1.042353 1.531332 -1.412678
v -0.876355 1.084401 -1.888036
v -1.136177 1.079201 -1.534244
v -1.275837 0.536249 -0.891294
v -1.184555 1.074002 -1.122786
v -0.793478 1.436594 -1.404790
v -0.780886 1.500359 -1.000687
v -0.304802 1.728439 -0.966506
v 0.163633 1.819527 -0.982434
v 0.599164 1.758032 -1.120483
v -0.803042 1.468166 -0.552286
v -0.327963 1.761606 -0.613318
v 0.199224 1.824288 -0.659021
v 0.692490 1.788309 -0.845925
v -0.639445 1.426216 -0.091859
v -0.164365 1.719656 -0.152891
v 0.362822 1.782337 -0.198594
v 0.856088 1.746359 -0.385498
v -0.116469 -1.146842 -1.496323
v 0.285754 -1.230634 -1.565032
v 0.764431 -1.135741 -1.519223
v -1.022100 0.420299 0.356405
v -1.129200 0.199000 -0.010696
v -1.049200 -0.229500 0.166604
v 1.603800 0.233400 -0.081696
v 1.543900 -0.196800 0.099204
v 1.476300 0.915600 0.051006
v 1.510400 0.452200 0.290606
v 1.115800 0.635000 0.590106
v -1.177600 1.322901 -0.421794
v -1.100900 1.284201 -0.785494
v -1.324800 0.749900 -0.754994
v -1.462300 0.861800 -0.268094
v -1.460000 -0.032699 -0.570796
v -1.581800 0.065800 -0.084796
v -1.288100 -0.688900 0.173104
v -1.097400 0.153000 0.259404
v -1.040900 0.542400 0.278806
v -1.100900 0.866300 0.094706
v -0.953200 1.306200 -0.112794
v -0.144400 1.811001 -0.257294
v -0.429500 1.797701 -0.325394
v -0.729600 1.486601 0.138306
v -0.286200 1.548000 0.264706
v -0.824200 1.086800 0.504206
v -0.358900 0.766300 0.762806
v -0.690400 0.583100 0.831806
v -0.360100 0.032800 1.025905
v -0.923600 0.369400 0.503205
v 0.211500 1.905600 -0.220194
v 0.231200 1.717600 0.445106
v -0.324900 1.266100 0.514506
v 0.240400 1.473400 0.682106
v 0.254700 0.997800 1.003506
v -0.241700 0.388900 0.997805
v 0.268000 0.514000 1.277905
v 0.282000 -0.301900 1.421705
v 0.765400 0.401600 0.971605
v 0.860600 0.781700 0.731106
v 0.801300 1.280300 0.485206
v 0.742500 1.560900 0.238006
v 0.501900 1.841801 -0.274194
v 0.501400 1.952101 -0.600594
v 1.045200 1.682800 -0.121994
v 0.697500 1.898300 -0.604994
v 1.227800 1.533300 -0.320994
v 1.360000 1.591000 -0.565994
v 1.395000 1.335800 -0.173794
v 1.602400 1.357901 -0.493994
v 1.538300 0.838600 0.100906
v 1.933800 0.892000 -0.355894
v 1.596700 0.543800 0.171706
v 2.061700 0.114000 -0.182296
v 1.643600 0.187500 0.188904
v 1.794300 -0.650100 0.093004
v 1.296600 1.483601 -0.862494
v 1.463600 1.277599 -0.864594
v 1.724500 0.788300 -0.834194
v 1.834400 0.008700 -0.656496
v 1.180200 1.510599 0.088606
v 1.303700 1.113600 0.448906
v 1.199900 0.606900 0.782706
v 0.894000 0.048600 0.993304
v 1.411300 0.331600 0.440305
v 1.558800 0.587300 0.202806
vt 0.859400 0.639300
vt 0.882200 0.896500
vt 0.993400 0.768700
vt 0.264500 0.400600
vt 0.288200 0.433000
vt 0.253600 0.401900
vt 0.221800 0.255900
vt 0.184200 0.276500
vt 0.178200 0.144500
vt 0.133500 0.207200
vt 0.710200 0.166500
vt 0.732100 0.049800
vt 0.808400 0.096700
vt 0.772400 0.232500
vt 0.846300 0.169900
vt 0.812400 0.316700
vt 0.851600 0.275500
vt 0.233200 0.096700
vt 0.309500 0.049800
vt 0.331700 0.167000
vt 0.271500 0.235600
vt 0.306100 0.288500
vt 0.587300 0.523500
vt 0.520800 0.523500
vt 0.631300 0.475400
vt 0.520800 0.481000
vt 0.618600 0.391300
vt 0.520800 0.391300
vt 0.616300 0.319000
vt 0.520800 0.300900
vt 0.682900 0.242100
vt 0.520800 0.186400
vt 0.653700 0.132900
vt 0.442400 0.525900
vt 0.435300 0.480200
vt 0.410900 0.414100
vt 0.353600 0.326300
vt 0.354200 0.244600
vt 0.387900 0.132900
vt 0.743400 0.276100
vt 0.869400 0.484700
vt 0.744000 0.479500
vt 0.806500 0.432900
vt 0.172800 0.332600
vt 0.114400 0.299100
vt 0.927200 0.299100
vt 0.879600 0.388400
vt 0.908100 0.207200
vt 0.734500 0.310500
vt 0.282100 0.467600
vt 0.345000 0.518200
vt 0.188700 0.419300
vt 0.240600 0.408500
vt 0.137200 0.427000
vt 0.522600 0.908400
vt 0.464300 0.971500
vt 0.408100 0.991200
vt 0.357275 0.299293
vt 0.283316 0.339701
vt 0.306976 0.323034
vt 0.246552 0.387075
vt 0.294197 0.376711
vt 0.248986 0.432251
vt 0.388817 0.311996
vt 0.257966 0.489094
vt 0.311789 0.442345
vt 0.393393 0.375203
vt 0.657223 0.313515
vt 0.646122 0.286662
vt 0.729008 0.313605
vt 0.760204 0.347081
vt 0.782473 0.375222
vt 0.810947 0.395497
vt 0.846000 0.352550
vt 0.812236 0.448488
vt 0.791077 0.448925
vt 0.000000 0.000000
vt 0.515000 0.813700
vt 0.755214 0.431427
vt 0.665775 0.393169
vt 0.424451 0.442839
vt 0.630602 0.457555
vt 0.749422 0.491494
vt 0.645510 0.515202
vt 0.528979 0.522337
vt 0.521111 0.461782
vt 0.417412 0.498885
vt 0.789567 0.510877
vt 0.745403 0.546112
vt 0.650135 0.565832
vt 0.522437 0.567615
vt 0.398469 0.540597
vt 0.323246 0.555050
vt 0.702282 0.596165
vt 0.608862 0.619127
vt 0.488009 0.621949
vt 0.371337 0.597007
vt 0.000000 0.000000
vt 0.000000 0.000000
vt 0.000000 0.000000
vt 0.000000 0.000000
vt 0.000000 0.000000
vt 0.982100 0.554500
vt 0.256400 0.763800
vt 0.389000 0.973600
vt 0.365600 0.592500
vt 0.592900 0.496000
vt 0.370500 0.432500
vt 0.515000 0.813700
vt 0.365600 0.592500
vt 0.370500 0.432500
vt 0.592900 0.496000
vt 0.389000 0.973600
vt 0.256400 0.763800
vt 0.859400 0.639300
vt 0.982100 0.554500
vt 0.993400 0.768700
vt 0.152800 0.887200
vt 0.068000 0.887200
vt 0.068000 0.840700
vt 0.152800 0.840700
vt 0.068000 0.691700
vt 0.152800 0.707200
vt 0.152800 0.618700
vt 0.239800 0.691700
vt 0.236300 0.774100
vt 0.236200 0.853800
vt 0.236200 0.918300
vt 0.437200 0.978600
vt 0.302600 0.976200
vt 0.302600 0.908600
vt 0.408000 0.913400
vt 0.302600 0.853800
vt 0.383900 0.728200
vt 0.302600 0.702600
vt 0.302600 0.656700
vt 0.253900 0.711000
vt 0.502600 0.984400
vt 0.502600 0.923500
vt 0.393800 0.841900
vt 0.502600 0.849000
vt 0.502600 0.765600
vt 0.410000 0.703900
vt 0.502600 0.710700
vt 0.502600 0.665700
vt 0.595300 0.703900
vt 0.614800 0.754900
vt 0.606300 0.840700
vt 0.597300 0.887200
vt 0.584800 0.964300
vt 0.667800 0.980000
vt 0.699100 0.928200
vt 0.824100 0.980000
vt 0.771600 0.928200
vt 0.851400 0.928200
vt 0.771600 0.887200
vt 0.851400 0.887200
vt 0.771600 0.821600
vt 0.851400 0.821600
vt 0.771600 0.730200
vt 0.849000 0.697400
vt 0.771600 0.675000
vt 0.846600 0.618600
vt 0.925400 0.928200
vt 0.925400 0.887200
vt 0.925400 0.821600
vt 0.894300 0.661800
vt 0.699100 0.887200
vt 0.695500 0.824100
vt 0.687200 0.735200
vt 0.670600 0.640100
vt 0.754900 0.682300
vt 0.764100 0.737400
vt 0.398870 0.499750
vt 0.627092 0.515817
vt 0.559812 0.526490
vt 0.475942 0.542699
vt 0.406800 0.529771
vt 0.674733 0.536610
vt 0.756120 0.413112
vt 0.767714 0.458876
vt 0.714636 0.492630
vn -0.679100 0.284300 0.676700
vn -0.714800 0.207400 0.667800
vn -0.851000 0.355200 0.386700
vn 0.870900 0.230500 -0.434200
vn 0.764100 0.559800 -0.320600
vn 0.937500 0.291500 -0.189800
vn 0.946900 -0.091900 -0.308100
vn 0.993500 -0.053300 -0.100300
vn 0.915100 -0.272700 -0.297000
vn 0.993700 -0.112000 -0.003900
vn -0.608000 -0.493300 -0.622100
vn -0.550800 -0.642400 -0.532900
vn -0.731800 -0.497000 -0.466300
vn -0.850700 -0.248100 -0.463400
vn -0.929900 -0.250500 -0.269300
vn -0.944400 0.025000 -0.327800
vn -0.997800 -0.059000 -0.031000
vn 0.742700 -0.467200 -0.479700
vn 0.575000 -0.598200 -0.558200
vn 0.613400 -0.446500 -0.651500
vn 0.812200 -0.217800 -0.541200
vn 0.714300 -0.005100 -0.699800
vn -0.231800 0.923400 -0.306000
vn -0.038000 0.949300 -0.312000
vn -0.287800 0.805800 -0.517500
vn -0.033600 0.808800 -0.587200
vn -0.314900 0.496200 -0.809100
vn -0.009400 0.477700 -0.878500
vn -0.320400 0.101200 -0.941900
vn -0.008600 0.070700 -0.997500
vn -0.482400 -0.245500 -0.840900
vn -0.022500 -0.351600 -0.935900
vn -0.316700 -0.609000 -0.727200
vn 0.139000 0.915400 -0.377900
vn 0.237900 0.768700 -0.593700
vn 0.281200 0.464400 -0.839800
vn 0.388300 0.174600 -0.904900
vn 0.449500 -0.202700 -0.870000
vn 0.291200 -0.570800 -0.767800
vn -0.778700 -0.114000 -0.617000
vn -0.503900 -0.816500 0.281600
vn -0.908800 0.393600 0.138200
vn 0.998100 0.032500 0.053100
vn 0.986900 -0.063600 0.148200
vn -0.979900 -0.074700 0.184700
vn -0.977100 0.105900 0.184500
vn -0.992600 -0.100800 0.067600
vn -0.653400 0.079900 -0.752800
vn 0.721900 0.690300 -0.047600
vn 0.533700 0.844900 -0.036600
vn 0.970400 0.228700 0.077200
vn 0.942500 0.333600 0.021500
vn 0.999000 -0.030700 -0.031000
vn -0.119700 -0.981100 0.152300
vn 0.688200 0.292900 -0.663800
vn 0.578800 0.588800 -0.564200
vn 0.478700 0.812500 -0.332600
vn -0.607000 0.456400 -0.650500
vn -0.849900 0.415500 -0.324000
vn -0.994400 0.105300 -0.012800
vn -0.903500 0.426800 -0.038200
vn -0.534800 0.797700 -0.278800
vn -0.595000 0.802300 -0.047500
vn -0.309600 0.946500 -0.090900
vn -0.043700 0.992300 -0.115600
vn 0.226000 0.961200 -0.157800
vn -0.649000 0.743200 0.162500
vn -0.334300 0.939200 0.078700
vn -0.029200 0.999300 0.022900
vn 0.261100 0.962900 -0.068600
vn -0.571900 0.773400 0.273700
vn -0.280200 0.941900 0.185400
vn 0.001900 0.995900 0.090100
vn 0.227000 0.973900 0.008100
vn -0.276000 -0.677400 -0.681900
vn -0.006000 -0.648300 -0.761400
vn 0.328700 -0.634200 -0.699900
vn -0.824100 0.209200 0.526400
vn -0.965800 -0.070200 0.249800
vn -0.970800 -0.089100 0.222600
vn 0.922300 0.033500 0.385100
vn 0.979600 -0.078900 0.185000
vn 0.844600 0.293600 0.447600
vn 0.871500 0.274300 0.406500
vn 0.976100 0.152200 0.155400
vn 0.664500 0.381200 0.642800
vn -0.856800 0.500700 0.123000
vn -0.902300 0.365100 -0.229100
vn -0.922200 0.248600 -0.296300
vn -0.907600 0.375100 0.188700
vn -0.968100 -0.100400 -0.229700
vn -0.953600 -0.037900 0.298700
vn -0.860400 -0.170700 0.480200
vn -0.584100 0.046300 0.810300
vn -0.764100 0.157800 0.625500
vn -0.762600 0.339800 0.550400
vn -0.762000 0.480500 0.434200
vn -0.235600 0.883800 0.404200
vn -0.154800 0.863800 0.479400
vn -0.469500 0.717500 0.514600
vn -0.323600 0.778300 0.538100
vn -0.596100 0.455300 0.661400
vn -0.276600 0.450800 0.848700
vn -0.505600 0.199300 0.839400
vn -0.432000 0.058200 0.900000
vn -0.819200 0.012200 0.573400
vn -0.036200 0.953000 0.300700
vn -0.001400 0.843100 0.537800
vn -0.305000 0.531100 0.790500
vn 0.005300 0.627100 0.778900
vn -0.001700 0.512700 0.858600
vn -0.492500 0.300800 0.816600
vn 0.011600 0.332300 0.943100
vn 0.023400 0.173900 0.984500
vn 0.548500 0.279000 0.788300
vn 0.315700 0.435200 0.843200
vn 0.359500 0.581900 0.729500
vn 0.337000 0.776500 0.532400
vn 0.230000 0.919600 0.318500
vn 0.221600 0.935600 0.274700
vn 0.448000 0.861500 0.238900
vn 0.346100 0.927700 0.139600
vn 0.562200 0.787100 0.253900
vn 0.571200 0.820800 -0.006300
vn 0.724700 0.589800 0.356300
vn 0.775800 0.629800 0.038200
vn 0.796900 0.361500 0.484100
vn 0.915900 0.388400 0.101800
vn 0.706000 0.233900 0.668500
vn 0.985400 -0.045000 0.163900
vn 0.669900 0.087200 0.737300
vn 0.924900 -0.209200 0.317600
vn 0.601000 0.701700 -0.382700
vn 0.766900 0.509700 -0.390000
vn 0.872700 0.242700 -0.423700
vn 0.908100 -0.136000 -0.396200
vn 0.555700 0.716300 0.422000
vn 0.613700 0.481600 0.625700
vn 0.528200 0.197800 0.825700
vn 0.497400 0.054100 0.865900
vn 0.824300 -0.066300 0.562200
vn 0.862700 0.141100 0.485600
vn -0.064800 0.988600 0.136300
vn -0.580700 0.809800 0.083800
usemtl None
s 1
f 1/1/1 2/2/2 3/3/3
f 4/4/4 5/5/5 6/6/6
f 4/4/4 6/6/6 7/7/7
f 7/7/7 6/6/6 8/8/8
f 7/7/7 8/8/8 9/9/9
f 9/9/9 8/8/8 10/10/10
f 11/11/11 12/12/12 13/13/13
f 11/11/11 13/13/13 14/14/14
f 14/14/14 13/13/13 15/15/15
f 14/14/14 15/15/15 16/16/16
f 16/16/16 15/15/15 17/17/17
f 18/18/18 19/19/19 20/20/20
f 18/18/18 20/20/20 9/9/9
f 9/9/9 20/20/20 21/21/21
f 9/9/9 21/21/21 7/7/7
f 7/7/7 21/21/21 22/22/22
f 7/7/7 22/22/22 4/4/4
f 23/23/23 24/24/24 25/25/25
f 25/25/25 24/24/24 26/26/26
f 25/25/25 26/26/26 27/27/27
f 27/27/27 26/26/26 28/28/28
f 27/27/27 28/28/28 29/29/29
f 29/29/29 28/28/28 30/30/30
f 29/29/29 30/30/30 31/31/31
f 31/31/31 30/30/30 32/32/32
f 31/31/31 32/32/32 33/33/33
f 24/24/24 34/34/34 35/35/35
f 24/24/24 35/35/35 26/26/26
f 26/26/26 35/35/35 36/36/36
f 26/26/26 36/36/36 28/28/28
f 28/28/28 36/36/36 37/37/37
f 28/28/28 37/37/37 30/30/30
f 30/30/30 37/37/37 38/38/38
f 30/30/30 38/38/38 32/32/32
f 32/32/32 38/38/38 39/39/39
f 31/31/31 33/33/33 11/11/11
f 31/31/31 11/11/11 40/40/40
f 40/40/40 11/11/11 14/14/14
f 40/40/40 14/14/14 16/16/16
f 3/41/3 41/42/41 42/43/42
f 43/44/43 44/45/44 10/10/10
f 10/10/10 8/8/8 43/44/43
f 45/46/45 46/47/46 17/17/17
f 17/17/17 47/48/47 45/46/45
f 47/48/47 17/17/17 15/15/15
f 40/40/40 16/16/16 48/49/48
f 48/49/48 31/31/31 40/40/40
f 31/31/31 48/49/48 29/29/29
f 38/38/38 37/37/37 22/22/22
f 22/22/22 20/20/20 38/38/38
f 20/20/20 22/22/22 21/21/21
f 39/39/39 38/38/38 20/20/20
f 49/50/49 50/51/50 51/52/51
f 49/50/49 51/52/51 52/53/52
f 52/53/52 51/52/51 43/44/43
f 52/53/52 43/44/43 6/6/6
f 6/6/6 43/44/43 8/8/8
f 51/52/51 53/54/53 44/45/44
f 44/45/44 43/44/43 51/52/51
f 49/50/49 52/53/52 6/6/6
f 6/6/6 5/5/5 49/50/49
f 42/55/42 41/56/41 54/57/54
f 37/58/37 55/59/55 22/60/22
f 22/60/22 55/59/55 4/61/4
f 4/61/4 55/59/55 56/62/56 5/63/5
f 37/58/37 36/64/36 56/62/56 55/59/55
f 49/65/49 5/63/5 56/62/56 57/66/57
f 35/67/35 57/66/57 56/62/56 36/64/36
f 27/68/27 29/69/29 48/70/48 58/71/58
f 16/72/16 59/73/59 58/71/58 48/70/48
f 17/17/17 46/47/46 60/74/60 16/16/16
f 61/75/61 59/73/59 16/72/16 60/76/60
f 42/43/42 61/77/61 60/74/60 46/78/46
f 61/75/61 62/79/62 59/73/59
f 59/73/59 62/79/62 58/71/58
f 25/80/25 27/68/27 58/71/58 62/79/62
f 35/67/35 34/81/34 57/66/57
f 25/80/25 62/79/62 23/82/23
f 61/75/61 63/83/63 62/79/62
f 62/79/62 63/83/63 64/84/64 23/82/23
f 23/82/23 64/84/64 65/85/65 24/86/24
f 57/66/57 34/81/34 66/87/66
f 24/86/24 65/85/65 66/87/66 34/81/34
f 42/88/42 67/89/67 63/83/63 61/75/61
f 64/84/64 63/83/63 67/89/67 68/90/68
f 65/85/65 64/84/64 68/90/68 69/91/69
f 66/87/66 65/85/65 69/91/69 70/92/70
f 49/65/49 57/66/57 66/87/66 70/92/70
f 49/65/49 70/92/70 50/93/50
f 68/90/68 67/89/67 71/94/71 72/95/72
f 70/92/70 69/91/69 73/96/73 74/97/74
f 69/91/69 68/90/68 72/95/72 73/96/73
f 70/92/70 74/97/74 50/93/50
f 67/98/67 42/43/42 71/99/71
f 11/11/11 33/33/33 75/100/75 12/12/12
f 33/33/33 32/32/32 76/101/76 75/100/75
f 39/39/39 20/20/20 19/19/19 77/102/77
f 32/32/32 39/39/39 77/102/77 76/101/76
f 1/1/1 3/3/3 78/103/78
f 78/104/78 3/105/3 46/78/46
f 78/104/78 46/78/46 79/106/79
f 79/106/79 46/78/46 45/107/45
f 79/106/79 45/107/45 80/108/80
f 53/109/53 81/110/81 82/111/82
f 82/111/82 44/112/44 53/109/53
f 83/113/83 84/114/84 81/110/85
f 85/115/86 84/116/84 83/117/83
f 46/78/46 3/41/3 42/43/42
f 86/118/87 87/119/88 88/120/89
f 86/118/87 88/120/89 89/121/90
f 89/121/90 88/120/89 90/122/91
f 89/121/90 90/122/91 91/123/92
f 91/123/92 90/122/91 92/124/93
f 91/123/92 92/124/93 93/125/94
f 91/123/92 93/125/94 94/126/95
f 91/123/92 94/126/95 89/121/90
f 89/121/90 94/126/95 95/127/96
f 89/121/90 95/127/96 86/118/87
f 86/118/87 95/127/96 96/128/97
f 97/129/98 98/130/99 99/131/100
f 97/129/98 99/131/100 100/132/101
f 100/132/101 99/131/100 101/133/102
f 102/134/103 103/135/104 104/136/105
f 101/133/102 95/127/96 94/126/95
f 101/133/102 94/126/95 103/135/104
f 103/135/104 94/126/95 105/137/106
f 103/135/104 105/137/106 104/136/105
f 106/138/107 97/129/98 100/132/101
f 106/138/107 100/132/101 107/139/108
f 107/139/108 100/132/101 108/140/109
f 107/139/108 108/140/109 109/141/110
f 109/141/110 108/140/109 102/134/103
f 109/141/110 102/134/103 110/142/111
f 110/142/111 102/134/103 111/143/112
f 110/142/111 111/143/112 112/144/113
f 112/144/113 111/143/112 113/145/114
f 112/144/113 113/145/114 114/146/115
f 112/144/113 114/146/115 115/147/116
f 112/144/113 115/147/116 110/142/111
f 110/142/111 115/147/116 116/148/117
f 110/142/111 116/148/117 109/141/110
f 109/141/110 116/148/117 117/149/118
f 109/141/110 117/149/118 107/139/108
f 107/139/108 117/149/118 118/150/119
f 107/139/108 118/150/119 106/138/107
f 119/151/120 118/150/119 120/152/121
f 119/151/120 120/152/121 121/153/122
f 121/153/122 120/152/121 122/154/123
f 121/153/122 122/154/123 123/155/124
f 123/155/124 122/154/123 124/156/125
f 123/155/124 124/156/125 125/157/126
f 125/157/126 124/156/125 126/158/127
f 125/157/126 126/158/127 127/159/128
f 127/159/128 126/158/127 128/160/129
f 127/159/128 128/160/129 129/161/130
f 129/161/130 128/160/129 130/162/131
f 129/161/130 130/162/131 131/163/132
f 132/164/133 123/155/124 133/165/134
f 133/165/134 123/155/124 125/157/126
f 133/165/134 125/157/126 134/166/135
f 134/166/135 125/157/126 127/159/128
f 134/166/135 127/159/128 135/167/136
f 135/167/136 127/159/128 129/161/130
f 135/167/136 129/161/130 131/163/132
f 120/152/121 118/150/119 117/149/118
f 120/152/121 117/149/118 136/168/137
f 136/168/137 117/149/118 116/148/117
f 136/168/137 116/148/117 137/169/138
f 138/170/139 115/147/116 139/171/140
f 138/170/139 139/171/140 140/172/141
f 122/154/123 120/152/121 136/168/137
f 122/154/123 136/168/137 124/156/125
f 124/156/125 136/168/137 137/169/138
f 124/156/125 137/169/138 126/158/127
f 101/133/102 99/131/100 96/128/97
f 96/128/97 95/127/96 101/133/102
f 141/173/142 137/169/138 138/170/139
f 138/170/139 140/172/141 141/173/142
f 102/134/103 108/140/109 100/132/101 101/133/102 103/135/104
f 137/169/138 116/148/117 115/147/116 138/170/139
f 137/169/138 141/173/142 126/158/127
f 123/155/124 132/164/133 121/153/122
f 119/174/143 98/175/143 97/176/143 106/177/143 118/178/143
f 99/179/144 98/175/144 87/180/144 86/181/144 96/182/144
