# Blender v2.77 (sub 0) OBJ File: ''
# www.blender.org
mtllib kei face.mtl
o model459.003
v 0.787200 -1.568600 0.226004
v 1.012900 -1.468900 0.095404
v 1.112900 -1.328700 0.247804
v 0.843100 -1.448200 0.387904
v 1.134600 -1.158800 0.418104
v 0.858600 -1.306000 0.550504
v 1.092900 -1.013600 0.553304
v 0.861900 -1.146700 0.679704
v 1.075000 -0.887600 0.542504
v 0.901400 -0.885500 0.609704
v 1.030800 -0.792400 0.492104
v 0.888600 -0.788400 0.555604
v 1.022800 -0.369300 0.543604
v 0.726000 -0.371300 0.601004
v 1.018700 -0.045700 0.534704
v 0.789800 -0.156700 0.601804
v 1.062000 0.091200 0.601504
v 0.709000 -0.021000 0.734204
v 1.092000 0.244600 0.630506
v 0.263700 0.113100 0.917904
v 1.115800 0.635000 0.590106
v 0.255500 0.722700 0.901306
v -0.487300 -1.487800 0.134404
v -0.252700 -1.581700 0.253104
v -0.303100 -1.462600 0.417704
v -0.582700 -1.350000 0.291904
v -0.313700 -1.320700 0.581004
v -0.599800 -1.180600 0.463204
v -0.314300 -1.161500 0.710304
v -0.554800 -1.034400 0.596104
v -0.540700 -0.907900 0.584504
v -0.702400 -0.889500 0.474504
v -0.720600 -0.720700 0.430104
v -0.852200 -0.713600 0.337504
v -0.761000 -0.398600 0.426104
v -0.900700 -0.396300 0.340704
v -0.737000 -0.192000 0.473704
v -0.830300 -0.091800 0.466004
v -0.506000 -0.064900 0.574304
v -0.549300 0.071000 0.643304
v -0.271200 -0.170100 0.629404
v -0.187100 -0.032300 0.757504
v -0.202200 -0.383000 0.625104
v -0.071500 -0.350800 0.715204
v -0.356400 -0.804100 0.588004
v -0.176000 -0.829600 0.676604
v -0.363900 -0.901500 0.642504
v -0.124400 -1.054700 0.770604
v -0.501500 -0.811700 0.531904
v -0.501600 -0.388500 0.583204
v 0.672800 -1.044700 0.749904
v 0.713800 -0.818401 0.653504
v 0.599400 -0.342301 0.697704
v 0.463900 -0.913800 0.820904
v 0.270200 -0.656600 0.798704
v 0.267100 -0.337600 0.832404
v 0.084500 -0.918600 0.830804
v 0.277100 -0.894301 0.948404
v 1.317700 -1.162700 0.072204
v 1.313600 -0.996000 0.283404
v 1.470800 -0.960300 -0.116696
v 1.442100 -0.795700 0.155504
v 1.510400 0.452200 0.290606
v 1.433900 0.086100 0.375204
v 1.337400 -0.064600 0.409704
v 1.247200 -0.167000 0.422104
v 1.273900 -0.373000 0.373204
v 1.241800 -0.696000 0.379104
v 1.230300 -0.865200 0.424304
v 1.603800 0.233400 -0.081696
v 1.543900 -0.196800 0.099204
v 1.408900 -0.367200 0.280704
v -0.581600 0.223500 0.674006
v -0.617200 0.613200 0.635106
v -1.022100 0.420299 0.356405
v -0.932200 0.056400 0.436704
v -1.129200 0.199000 -0.010696
v -1.049200 -0.229500 0.166604
v -1.022000 -0.559100 0.098004
v -0.929600 -0.825500 0.217204
v -0.789600 -1.022500 0.338104
v -0.800500 -1.189300 0.127304
v -0.968200 -0.991000 -0.053296
v 1.368300 -0.685600 0.279804
v 1.521400 -0.527100 0.031804
v 0.408500 -1.753200 0.186004
v 0.673500 -1.690800 0.032204
v 0.447400 -1.651200 0.390704
v 0.476200 -1.537900 0.541304
v 0.486200 -1.403401 0.674404
v 0.493100 -1.246500 0.800804
v 0.469000 -1.118301 0.823404
v 0.277500 -1.103300 0.860304
v 0.269000 -1.765400 0.214704
v 0.273700 -1.666300 0.443804
v 0.275900 -1.549200 0.583204
v 0.277600 -1.423700 0.711704
v 0.278600 -1.254501 0.832604
v 0.127900 -1.756700 0.193304
v 0.097200 -1.655600 0.399804
v 0.073400 -1.543000 0.551804
v 0.066900 -1.408700 0.685304
v 0.062700 -1.251900 0.812004
v 0.084700 -1.123100 0.833404
v -0.146200 -1.701100 0.053504
v 0.864000 -1.622700 -0.131696
v -0.346600 -1.637900 -0.100196
vt 0.690200 0.076500
vt 0.774400 0.115600
vt 0.810200 0.171300
vt 0.709700 0.124500
vt 0.817300 0.239300
vt 0.723100 0.181400
vt 0.801500 0.297800
vt 0.715200 0.245300
vt 0.795600 0.348600
vt 0.731500 0.350200
vt 0.780300 0.387200
vt 0.734200 0.389400
vt 0.778900 0.557300
vt 0.669800 0.558000
vt 0.778900 0.687500
vt 0.694100 0.643900
vt 0.794800 0.742300
vt 0.663900 0.698800
vt 0.806200 0.803700
vt 0.500000 0.754800
vt 0.817000 0.960700
vt 0.500000 1.000000
vt 0.225600 0.115600
vt 0.309800 0.076500
vt 0.290300 0.124500
vt 0.189800 0.171300
vt 0.276900 0.181400
vt 0.182700 0.239300
vt 0.284800 0.245300
vt 0.198500 0.297800
vt 0.204400 0.348600
vt 0.146400 0.360300
vt 0.141000 0.435900
vt 0.093800 0.416000
vt 0.127700 0.554700
vt 0.077500 0.556400
vt 0.137000 0.637600
vt 0.103400 0.678400
vt 0.221100 0.687500
vt 0.205200 0.742300
vt 0.305900 0.643900
vt 0.336100 0.698800
vt 0.330200 0.558000
vt 0.377300 0.570100
vt 0.265800 0.389400
vt 0.337200 0.378100
vt 0.268500 0.350200
vt 0.354200 0.287300
vt 0.219700 0.387200
vt 0.221100 0.557300
vt 0.645800 0.287300
vt 0.662800 0.378100
vt 0.622700 0.570100
vt 0.569400 0.340900
vt 0.500000 0.445400
vt 0.500000 0.573600
vt 0.430600 0.340900
vt 0.500000 0.349600
vt 0.887500 0.237200
vt 0.884800 0.304000
vt 0.946200 0.318000
vt 0.933900 0.384100
vt 0.963300 0.885400
vt 0.932900 0.738500
vt 0.896600 0.678400
vt 0.863000 0.637600
vt 0.872300 0.554700
vt 0.859000 0.435900
vt 0.853600 0.360300
vt 1.000000 0.730200
vt 0.974400 0.624400
vt 0.922500 0.556400
vt 0.193800 0.803700
vt 0.183000 0.960700
vt 0.036700 0.885400
vt 0.067100 0.738500
vt -0.000000 0.730200
vt 0.025600 0.624400
vt 0.034700 0.491800
vt 0.066100 0.384100
vt 0.115200 0.304000
vt 0.112500 0.237200
vt 0.053800 0.318000
vt 0.906200 0.416000
vt 0.965300 0.491800
vt 0.551300 0.004200
vt 0.644700 0.028100
vt 0.564100 0.044900
vt 0.573700 0.090100
vt 0.576700 0.144000
vt 0.578800 0.207000
vt 0.566000 0.258600
vt 0.500000 0.265600
vt 0.500000 0.000000
vt 0.500000 0.039600
vt 0.500000 0.086600
vt 0.500000 0.136900
vt 0.500000 0.204800
vt 0.448700 0.004200
vt 0.435900 0.044900
vt 0.426300 0.090100
vt 0.423300 0.144000
vt 0.421200 0.207000
vt 0.434000 0.258600
vt 0.355300 0.028100
vt 0.116900 0.471600
vt 0.054400 0.471600
vt 0.054400 0.377800
vt 0.116900 0.377800
vt 0.054400 0.377800
vt 0.054400 0.471600
vt 0.116900 0.471600
vt 0.116900 0.377800
vn 0.463100 -0.816600 0.344500
vn 0.525100 -0.796000 0.301100
vn 0.631500 -0.630000 0.451900
vn 0.487800 -0.724800 0.486500
vn 0.676200 -0.486400 0.553300
vn 0.498800 -0.610000 0.615700
vn 0.606900 -0.139900 0.782400
vn 0.486600 -0.247100 0.838000
vn 0.421100 0.313500 0.851100
vn 0.362100 0.351400 0.863300
vn 0.369500 0.276800 0.887000
vn 0.401100 0.226200 0.887700
vn 0.374500 -0.036200 0.926500
vn 0.471700 -0.024700 0.881400
vn 0.384900 -0.307900 0.870100
vn 0.511200 -0.260500 0.819000
vn 0.429000 -0.338300 0.837600
vn 0.418100 -0.240500 0.876000
vn 0.465700 -0.060200 0.882900
vn 0.028700 -0.078700 0.996500
vn 0.465600 0.053100 0.883400
vn 0.032300 0.034200 0.998900
vn -0.485100 -0.807400 0.336000
vn -0.426700 -0.825900 0.368500
vn -0.436300 -0.740300 0.511500
vn -0.594300 -0.648100 0.476300
vn -0.434600 -0.632800 0.640900
vn -0.643600 -0.499500 0.579900
vn -0.427600 -0.254500 0.867400
vn -0.566600 -0.142600 0.811600
vn -0.383900 0.303500 0.872100
vn -0.662400 -0.014600 0.749000
vn -0.522600 0.052100 0.851000
vn -0.723700 -0.074500 0.686000
vn -0.507000 -0.085500 0.857700
vn -0.702700 -0.130900 0.699300
vn -0.341900 -0.209100 0.916200
vn -0.515200 -0.253500 0.818700
vn -0.338200 -0.328700 0.881800
vn -0.343100 -0.343700 0.874100
vn -0.461500 -0.272800 0.844200
vn -0.374600 -0.213200 0.902300
vn -0.424700 -0.035900 0.904600
vn -0.396100 -0.136900 0.907900
vn -0.360200 0.216100 0.907500
vn -0.361400 0.202200 0.910200
vn -0.325400 0.342700 0.881300
vn -0.336700 0.115000 0.934600
vn -0.325900 0.261500 0.908500
vn -0.336800 -0.021800 0.941300
vn 0.379200 0.105800 0.919300
vn 0.402900 0.212000 0.890300
vn 0.446000 -0.126400 0.886100
vn 0.430200 0.180600 0.884500
vn 0.023500 0.164500 0.986100
vn 0.027700 -0.159800 0.986800
vn -0.388100 0.170200 0.905700
vn 0.024700 0.094100 0.995300
vn 0.825900 -0.435300 0.358300
vn 0.815500 -0.320200 0.482200
vn 0.876200 -0.367700 0.311500
vn 0.859300 -0.182000 0.477900
vn 0.798800 -0.030400 0.600900
vn 0.756800 -0.111200 0.644100
vn 0.560500 -0.228700 0.796000
vn 0.448000 -0.156700 0.880200
vn 0.560600 -0.095000 0.822600
vn 0.550100 0.079800 0.831300
vn 0.700500 0.002600 0.713700
vn 0.941400 -0.051700 0.333400
vn 0.868500 -0.091700 0.487100
vn 0.741200 -0.112800 0.661800
vn -0.412100 -0.077000 0.907900
vn -0.430900 0.050600 0.901000
vn -0.765500 -0.049900 0.641500
vn -0.725000 -0.127700 0.676800
vn -0.921200 -0.075100 0.381700
vn -0.839400 -0.113100 0.531600
vn -0.836400 -0.127900 0.533000
vn -0.828200 -0.204700 0.521700
vn -0.781400 -0.341100 0.522600
vn -0.795400 -0.453500 0.402100
vn -0.847900 -0.389700 0.359400
vn 0.760100 -0.055800 0.647400
vn 0.866100 -0.106500 0.488400
vn 0.280900 -0.882000 0.378500
vn 0.444600 -0.851700 0.277400
vn 0.302600 -0.838700 0.452700
vn 0.300200 -0.735600 0.607200
vn 0.291800 -0.647400 0.704100
vn 0.280600 -0.377300 0.882600
vn 0.258900 -0.064000 0.963800
vn 0.031000 -0.180900 0.983000
vn 0.030800 -0.914200 0.404100
vn 0.012800 -0.846000 0.533000
vn 0.019900 -0.744900 0.666900
vn 0.020900 -0.654400 0.755800
vn 0.025200 -0.390600 0.920200
vn -0.244900 -0.890700 0.382900
vn -0.253500 -0.839500 0.480500
vn -0.248000 -0.745500 0.618700
vn -0.238500 -0.652000 0.719700
vn -0.214800 -0.399200 0.891400
vn -0.203600 -0.060700 0.977200
vn -0.408000 -0.862500 0.299400
vn 0.500600 -0.832900 0.235800
vn -0.466600 -0.845100 0.260900
usemtl 01___Default
s 1
f 1/1/1 2/2/2 3/3/3
f 1/1/1 3/3/3 4/4/4
f 4/4/4 3/3/3 5/5/5
f 4/4/4 5/5/5 6/6/6
f 6/6/6 5/5/5 7/7/7
f 6/6/6 7/7/7 8/8/8
f 8/8/8 7/7/7 9/9/9
f 8/8/8 9/9/9 10/10/10
f 10/10/10 9/9/9 11/11/11
f 10/10/10 11/11/11 12/12/12
f 12/12/12 11/11/11 13/13/13
f 12/12/12 13/13/13 14/14/14
f 14/14/14 13/13/13 15/15/15
f 14/14/14 15/15/15 16/16/16
f 16/16/16 15/15/15 17/17/17
f 16/16/16 17/17/17 18/18/18
f 18/18/18 17/17/17 19/19/19
f 18/18/18 19/19/19 20/20/20
f 20/20/20 19/19/19 21/21/21
f 20/20/20 21/21/21 22/22/22
f 23/23/23 24/24/24 25/25/25
f 23/23/23 25/25/25 26/26/26
f 26/26/26 25/25/25 27/27/27
f 26/26/26 27/27/27 28/28/28
f 28/28/28 27/27/27 29/29/29
f 28/28/28 29/29/29 30/30/30
f 30/30/30 29/29/29 31/31/31
f 30/30/30 31/31/31 32/32/32
f 32/32/32 31/31/31 33/33/33
f 32/32/32 33/33/33 34/34/34
f 34/34/34 33/33/33 35/35/35
f 34/34/34 35/35/35 36/36/36
f 36/36/36 35/35/35 37/37/37
f 36/36/36 37/37/37 38/38/38
f 38/38/38 37/37/37 39/39/39
f 38/38/38 39/39/39 40/40/40
f 40/40/40 39/39/39 41/41/41
f 40/40/40 41/41/41 42/42/42
f 42/42/42 41/41/41 43/43/43
f 42/42/42 43/43/43 44/44/44
f 44/44/44 43/43/43 45/45/45
f 44/44/44 45/45/45 46/46/46
f 46/46/46 45/45/45 47/47/47
f 46/46/46 47/47/47 48/48/48
f 48/48/48 47/47/47 29/29/29
f 31/31/31 29/29/29 47/47/47
f 31/31/31 47/47/47 49/49/49
f 49/49/49 47/47/47 45/45/45
f 49/49/49 45/45/45 50/50/50
f 50/50/50 45/45/45 43/43/43
f 50/50/50 43/43/43 39/39/39
f 39/39/39 43/43/43 41/41/41
f 39/39/39 37/37/37 35/35/35
f 39/39/39 35/35/35 50/50/50
f 50/50/50 35/35/35 33/33/33
f 50/50/50 33/33/33 49/49/49
f 49/49/49 33/33/33 31/31/31
f 51/51/51 8/8/8 10/10/10
f 51/51/51 10/10/10 52/52/52
f 52/52/52 10/10/10 12/12/12
f 52/52/52 12/12/12 53/53/53
f 53/53/53 12/12/12 14/14/14
f 53/53/53 14/14/14 18/18/18
f 18/18/18 14/14/14 16/16/16
f 54/54/54 51/51/51 52/52/52
f 54/54/54 52/52/52 55/55/55
f 55/55/55 52/52/52 53/53/53
f 55/55/55 53/53/53 56/56/56
f 56/56/56 53/53/53 18/18/18
f 56/56/56 18/18/18 20/20/20
f 46/46/46 48/48/48 57/57/57
f 46/46/46 57/57/57 55/55/55
f 55/55/55 57/57/57 58/58/58
f 55/55/55 58/58/58 54/54/54
f 5/5/5 3/3/3 59/59/59
f 5/5/5 59/59/59 60/60/60
f 60/60/60 59/59/59 61/61/61
f 60/60/60 61/61/61 62/62/62
f 63/63/63 21/21/21 19/19/19
f 63/63/63 19/19/19 64/64/64
f 64/64/64 19/19/19 17/17/17
f 64/64/64 17/17/17 65/65/65
f 65/65/65 17/17/17 15/15/15
f 65/65/65 15/15/15 66/66/66
f 66/66/66 15/15/15 13/13/13
f 66/66/66 13/13/13 67/67/67
f 67/67/67 13/13/13 11/11/11
f 67/67/67 11/11/11 68/68/68
f 68/68/68 11/11/11 9/9/9
f 68/68/68 9/9/9 69/69/69
f 69/69/69 9/9/9 7/7/7
f 69/69/69 7/7/7 60/60/60
f 60/60/60 7/7/7 5/5/5
f 70/70/70 63/63/63 64/64/64
f 70/70/70 64/64/64 71/71/71
f 71/71/71 64/64/64 65/65/65
f 71/71/71 65/65/65 72/72/72
f 72/72/72 65/65/65 66/66/66
f 72/72/72 66/66/66 67/67/67
f 40/40/40 42/42/42 20/20/20
f 40/40/40 20/20/20 73/73/73
f 73/73/73 20/20/20 22/22/22
f 73/73/73 22/22/22 74/74/74
f 73/73/73 74/74/74 75/75/75
f 73/73/73 75/75/75 76/76/76
f 76/76/76 75/75/75 77/77/77
f 76/76/76 77/77/77 78/78/78
f 38/38/38 76/76/76 78/78/78
f 38/38/38 78/78/78 36/36/36
f 36/36/36 78/78/78 79/79/79
f 36/36/36 79/79/79 34/34/34
f 34/34/34 79/79/79 80/80/80
f 34/34/34 80/80/80 32/32/32
f 32/32/32 80/80/80 81/81/81
f 32/32/32 81/81/81 30/30/30
f 30/30/30 81/81/81 28/28/28
f 26/26/26 28/28/28 81/81/81
f 26/26/26 81/81/81 82/82/82
f 82/82/82 81/81/81 80/80/80
f 82/82/82 80/80/80 83/83/83
f 69/69/69 60/60/60 62/62/62
f 69/69/69 62/62/62 84/84/84
f 84/84/84 62/62/62 85/85/85
f 84/84/84 85/85/85 72/72/72
f 72/72/72 85/85/85 71/71/71
f 44/44/44 46/46/46 55/55/55
f 55/55/55 56/56/56 44/44/44
f 42/42/42 44/44/44 56/56/56
f 56/56/56 20/20/20 42/42/42
f 38/38/38 40/40/40 73/73/73
f 73/73/73 76/76/76 38/38/38
f 68/68/68 69/69/69 84/84/84
f 84/84/84 67/67/67 68/68/68
f 67/67/67 84/84/84 72/72/72
f 86/86/86 87/87/87 1/1/1
f 86/86/86 1/1/1 88/88/88
f 88/88/88 1/1/1 4/4/4
f 88/88/88 4/4/4 89/89/89
f 89/89/89 4/4/4 6/6/6
f 89/89/89 6/6/6 90/90/90
f 90/90/90 6/6/6 8/8/8
f 90/90/90 8/8/8 91/91/91
f 91/91/91 8/8/8 51/51/51
f 91/91/91 51/51/51 92/92/92
f 92/92/92 51/51/51 54/54/54
f 92/92/92 54/54/54 93/93/93
f 93/93/93 54/54/54 58/58/58
f 93/93/93 58/58/58 57/57/57
f 94/94/94 86/86/86 88/88/88
f 94/94/94 88/88/88 95/95/95
f 95/95/95 88/88/88 89/89/89
f 95/95/95 89/89/89 96/96/96
f 96/96/96 89/89/89 90/90/90
f 96/96/96 90/90/90 97/97/97
f 97/97/97 90/90/90 91/91/91
f 97/97/97 91/91/91 98/98/98
f 98/98/98 91/91/91 92/92/92
f 98/98/98 92/92/92 93/93/93
f 99/99/99 94/94/94 95/95/95
f 99/99/99 95/95/95 100/100/100
f 100/100/100 95/95/95 96/96/96
f 100/100/100 96/96/96 101/101/101
f 101/101/101 96/96/96 97/97/97
f 101/101/101 97/97/97 102/102/102
f 102/102/102 97/97/97 98/98/98
f 102/102/102 98/98/98 103/103/103
f 103/103/103 98/98/98 93/93/93
f 103/103/103 93/93/93 104/104/104
f 104/104/104 93/93/93 57/57/57
f 104/104/104 57/57/57 48/48/48
f 25/25/25 101/101/101 102/102/102
f 25/25/25 102/102/102 27/27/27
f 27/27/27 102/102/102 103/103/103
f 27/27/27 103/103/103 29/29/29
f 29/29/29 103/103/103 104/104/104
f 29/29/29 104/104/104 48/48/48
f 24/24/24 105/105/105 99/99/99
f 99/99/99 100/100/100 24/24/24
f 25/25/25 24/24/24 100/100/100
f 100/100/100 101/101/101 25/25/25
f 2/106/2 1/107/1 87/108/87
f 2/106/2 87/108/87 106/109/106
f 105/110/105 24/111/24 23/112/23
f 23/112/23 107/113/107 105/110/105
