# Blender v2.77 (sub 0) OBJ File: 'kei.blend'
# www.blender.org
mtllib left shoulder.mtl
o model459.002
v 1.352900 12.820200 -0.790698
v 1.560000 12.883400 -0.823298
v 1.538500 12.936900 -1.159498
v 1.375900 12.935700 -1.081998
v 1.562900 12.886000 -1.444798
v 1.349700 12.942700 -1.356398
v 1.907300 12.016100 -0.667698
v 1.995500 11.769100 -0.984798
v 2.704800 11.727300 -1.054098
v 2.732100 11.946300 -0.612298
v 3.298700 11.693100 -1.103398
v 3.327800 11.916100 -0.615198
v 2.733700 12.405900 -0.537298
v 2.034400 12.403800 -0.549498
v 2.719300 12.794600 -0.752898
v 2.163500 12.763700 -0.759998
v 3.328300 12.428100 -0.518998
v 3.312000 12.839400 -0.756798
v 3.299200 12.983900 -0.960298
v 2.707300 12.926600 -0.943198
v 3.271000 12.980200 -1.375498
v 2.681900 12.939700 -1.320498
v 3.247500 12.894800 -1.713298
v 2.660200 12.847900 -1.631098
v 3.229400 12.376800 -1.947998
v 2.641500 12.369200 -1.873298
v 3.254000 11.767400 -1.658398
v 2.663200 11.800600 -1.589998
v 1.278800 12.619600 -0.591898
v 1.603900 12.736800 -0.626698
v 1.294900 12.235800 -0.504198
v 1.147000 12.710100 -1.600398
v 1.880100 11.854000 -1.514398
v 2.043900 12.384300 -1.766898
v 2.137300 12.805100 -1.566998
v 1.291800 12.590200 -1.686198
v 1.150400 12.235300 -1.688198
v 2.190000 12.884100 -0.953598
v 2.171500 12.900100 -1.283198
v 1.153100 11.918300 -1.573798
v 1.240500 11.843500 -0.591498
v 1.214200 11.666000 -0.960998
v 2.533700 12.436100 -1.169098
v 1.176500 11.759000 -1.340398
v 1.122316 12.711089 -0.859870
v 1.140143 12.800611 -1.085648
v 1.119836 12.806036 -1.298328
v 1.064884 12.555610 -0.705785
v 1.077362 12.258137 -0.637811
v 0.962729 12.625754 -1.487445
v 0.965365 12.257751 -1.555497
v 0.967457 12.012052 -1.466828
v 1.035198 11.954077 -0.705475
v 1.014814 11.816502 -0.991864
v 0.985594 11.888583 -1.285927
v 0.869125 12.462416 -1.017518
v 0.875161 12.492728 -1.093967
v 0.868285 12.494565 -1.165980
v 0.849678 12.409771 -0.965345
v 0.853904 12.309047 -0.942329
v 0.815089 12.433522 -1.230015
v 0.815981 12.308916 -1.253057
v 0.816690 12.225722 -1.223034
v 0.839627 12.206092 -0.965240
v 0.832725 12.159510 -1.062212
v 0.822831 12.183916 -1.161781
v 0.807929 12.335110 -1.098225
vt 0.270800 0.699000
vt 0.270800 0.676500
vt 0.293300 0.676500
vt 0.293300 0.699000
vt 0.315700 0.676500
vt 0.315700 0.699000
vt 0.160200 0.451000
vt 0.005500 0.392100
vt 0.005500 0.234800
vt 0.160200 0.234800
vt 0.005500 0.014300
vt 0.160200 0.014300
vt 0.246300 0.986100
vt 0.246300 0.923400
vt 0.282300 0.923400
vt 0.282300 0.986100
vt 0.353500 0.923400
vt 0.353500 0.986100
vt 0.241200 0.234800
vt 0.241200 0.014300
vt 0.179300 0.014300
vt 0.179300 0.234800
vt 0.334000 0.014300
vt 0.334000 0.234800
vt 0.426800 0.014300
vt 0.426800 0.234800
vt 0.535100 0.014300
vt 0.535100 0.234800
vt 0.689700 0.014300
vt 0.689700 0.234800
vt 0.798000 0.014300
vt 0.798000 0.234800
vt 0.798000 0.014300
vt 0.798000 0.234800
vt 0.426800 0.014300
vt 0.426800 0.234800
vt 0.160200 0.964800
vt 0.160200 0.964800
vt 0.006700 0.923400
vt 0.160200 0.933800
vt 0.006700 0.861500
vt 0.330300 0.871900
vt 0.206600 0.841000
vt 0.394500 0.580700
vt 0.394500 0.610400
vt 0.360700 0.620200
vt 0.360700 0.580700
vt 0.338200 0.620200
vt 0.338200 0.580700
vt 0.315700 0.620200
vt 0.315700 0.580700
vt 0.338200 0.676500
vt 0.005500 0.624300
vt 0.397300 0.669600
vt 0.397300 0.272100
vt 0.509000 0.272100
vt 0.509000 0.669600
vt 0.663700 0.272100
vt 0.663700 0.669600
vt 0.798600 0.272100
vt 0.798600 0.669600
vt 0.397300 0.687300
vt 0.509000 0.687300
vt 0.663700 0.687300
vt 0.798600 0.687300
vt 0.301700 0.842300
vt 0.409900 0.779100
vt 0.177900 0.717200
vt 0.005500 0.717200
vt 0.336200 0.562400
vt 0.005500 0.485000
vt 0.206600 0.810000
vt 0.005500 0.810000
vt 0.005500 0.717200
vt 0.861500 0.995700
vt 0.853800 0.686200
vt 0.869200 0.686200
vt 0.869200 0.686200
vt 0.005500 0.438600
vt 0.005500 0.438600
vt 0.977500 0.686200
vt 0.993000 0.686200
vt 0.933300 0.995700
vt 0.962000 0.686200
vt 0.946600 0.686200
vt 0.931100 0.686200
vt 0.900200 0.686200
vt 0.884700 0.686200
vt 0.005500 0.624300
vt 0.005500 0.717200
vt 0.005500 0.810000
vt 0.005500 0.717200
vt 0.006700 0.923400
vt 0.006700 0.861500
vt 0.160200 0.964800
vt 0.301700 0.842300
vt 0.005500 0.438600
vt 0.005500 0.438600
vt 0.315700 0.699000
vt 0.293300 0.699000
vt 0.005500 0.485000
vt 0.270800 0.699000
vt 0.006700 0.923400
vt 0.006700 0.861500
vt 0.005500 0.810000
vt 0.005500 0.717200
vt 0.005500 0.438600
vt 0.005500 0.485000
vt 0.160200 0.964800
vt 0.005500 0.624300
vt 0.315700 0.699000
vt 0.293300 0.699000
vt 0.005500 0.717200
vt 0.301700 0.842300
vt 0.270800 0.699000
vt 0.005500 0.438600
vt 0.293300 0.699000
vt 0.301700 0.842300
vt 0.005500 0.717200
vt 0.005500 0.438600
vt 0.006700 0.861500
vt 0.005500 0.810000
vt 0.005500 0.485000
vt 0.006700 0.923400
vt 0.005500 0.624300
vt 0.270800 0.699000
vn -0.296100 0.824800 0.481600
vn -0.071900 0.917800 0.390500
vn 0.002900 1.000000 -0.008400
vn -0.164800 0.965600 0.201100
vn 0.033100 0.852200 -0.522200
vn -0.160700 0.949800 -0.268300
vn 0.105100 -0.543100 0.833100
vn 0.060000 -0.966900 0.247900
vn -0.060300 -0.982500 0.176500
vn -0.062800 -0.594700 0.801500
vn 0.853700 -0.520300 0.019900
vn 0.824300 -0.366500 0.431500
vn -0.037000 0.160600 0.986300
vn -0.011200 0.145800 0.989300
vn -0.043400 0.669000 0.742000
vn 0.008200 0.684800 0.728700
vn 0.862700 0.137300 0.486800
vn 0.897400 0.324900 0.298700
vn 0.862500 0.499500 0.080800
vn -0.073300 0.946300 0.315000
vn 0.906400 0.411800 -0.094200
vn -0.087100 0.989700 -0.114100
vn 0.786900 0.450500 -0.421700
vn -0.135800 0.761600 -0.633600
vn 0.772300 0.026300 -0.634700
vn -0.152900 0.000400 -0.988200
vn 0.764300 -0.489900 -0.419300
vn -0.118300 -0.809300 -0.575400
vn -0.301400 0.467000 0.831300
vn 0.060300 0.524500 0.849300
vn -0.184500 -0.012900 0.982700
vn -0.040800 -0.770800 -0.635700
vn -0.147200 0.013000 -0.989000
vn -0.103000 0.746300 -0.657600
vn -0.094000 0.292400 -0.951700
vn -0.260400 -0.113500 -0.958800
vn -0.020500 0.958200 0.285300
vn -0.041300 0.990700 -0.130000
vn -0.366700 0.586600 -0.722100
vn -0.303400 -0.585500 -0.751800
vn -0.215000 -0.594500 0.774800
vn -0.237200 -0.963800 0.121900
vn 0.995400 -0.063700 -0.071500
vn -0.279700 -0.895400 -0.346500
vn -0.746000 -0.057200 -0.663500
vn -0.769200 0.457200 -0.446400
vn -0.729400 -0.365700 0.578100
vn -0.743300 -0.658000 0.120600
vn -0.671000 0.414600 0.614700
vn -0.655000 0.035800 0.754800
vn -0.613500 0.708600 0.348600
vn -0.627400 0.776000 -0.064900
vn -0.749400 -0.628100 -0.209500
vn -0.616100 0.769900 0.166400
vn -0.759900 -0.421400 -0.495000
vn -0.889600 0.295800 0.347900
vn -0.880000 0.047800 0.472500
vn -0.921900 -0.149900 0.357400
vn -0.940700 -0.322500 0.105300
vn -0.952200 -0.302500 -0.042200
vn -0.961100 -0.199100 -0.191500
vn -0.834200 0.522200 0.177100
vn -0.959700 -0.026200 -0.279900
vn -0.817800 0.565500 0.106900
vn -0.834200 0.537700 0.122600
vn -0.945300 0.313900 -0.088600
vn -0.987200 0.109200 0.115800
usemtl 03___Default
s 1
f 1/1/1 2/2/2 3/3/3
f 1/1/1 3/3/3 4/4/4
f 4/4/4 3/3/3 5/5/5
f 4/4/4 5/5/5 6/6/6
f 7/7/7 8/8/8 9/9/9
f 7/7/7 9/9/9 10/10/10
f 10/10/10 9/9/9 11/11/11
f 10/10/10 11/11/11 12/12/12
f 7/13/7 10/14/10 13/15/13
f 7/13/7 13/15/13 14/16/14
f 14/16/14 13/15/13 15/17/15
f 14/16/14 15/17/15 16/18/16
f 10/19/10 12/20/12 17/21/17
f 10/19/10 17/21/17 13/22/13
f 13/22/13 17/21/17 18/23/18
f 13/22/13 18/23/18 15/24/15
f 15/24/15 18/23/18 19/25/19
f 15/24/15 19/25/19 20/26/20
f 20/26/20 19/25/19 21/27/21
f 20/26/20 21/27/21 22/28/22
f 22/28/22 21/27/21 23/29/23
f 22/28/22 23/29/23 24/30/24
f 24/30/24 23/29/23 25/31/25
f 24/30/24 25/31/25 26/32/26
f 26/32/26 25/31/25 27/33/27
f 26/32/26 27/33/27 28/34/28
f 28/34/28 27/33/27 11/35/11
f 28/34/28 11/35/11 9/36/9
f 2/37/2 1/38/1 29/39/29
f 2/37/2 29/39/29 30/40/30
f 30/40/30 29/39/29 31/41/31
f 30/40/30 31/41/31 16/42/16
f 16/42/16 31/41/31 14/43/14
f 9/44/9 8/45/8 33/46/32
f 9/44/9 33/46/32 28/47/28
f 28/47/28 33/46/32 34/48/33
f 28/47/28 34/48/33 26/49/26
f 26/49/26 34/48/33 35/50/34
f 26/49/26 35/50/34 24/51/24
f 5/5/5 35/50/34 34/48/33
f 5/5/5 34/48/33 36/52/35
f 36/52/35 34/48/33 33/46/32
f 36/52/35 33/46/32 37/53/36
f 16/54/16 15/55/15 20/56/20
f 16/54/16 20/56/20 38/57/37
f 38/57/37 20/56/20 22/58/22
f 38/57/37 22/58/22 39/59/38
f 39/59/38 22/58/22 24/60/24
f 39/59/38 24/60/24 35/61/34
f 30/62/30 16/54/16 38/57/37
f 30/62/30 38/57/37 2/63/2
f 2/63/2 38/57/37 39/59/38
f 2/63/2 39/59/38 3/64/3
f 3/64/3 39/59/38 35/61/34
f 3/64/3 35/61/34 5/65/5
f 6/66/6 5/67/5 36/68/35
f 36/68/35 32/69/39 6/66/6
f 32/69/39 36/68/35 37/53/36
f 37/53/36 33/70/32 40/71/40
f 8/8/8 7/72/7 41/73/41
f 41/73/41 42/74/42 8/8/8
f 43/75/43 19/76/19 18/77/18
f 18/77/18 17/78/17 43/75/43
f 7/72/7 14/43/14 31/41/31
f 31/41/31 41/73/41 7/72/7
f 8/45/8 42/79/42 44/80/44
f 44/80/44 33/46/32 8/45/8
f 33/46/32 44/80/44 40/71/40
f 21/81/21 19/82/19 43/83/43
f 43/83/43 23/84/23 21/81/21
f 23/84/23 43/83/43 25/85/25
f 27/86/27 25/85/25 43/83/43
f 43/83/43 11/87/11 27/86/27
f 11/87/11 43/83/43 12/88/12
f 17/78/17 12/88/12 43/83/43
f 32/69/39 37/53/36 51/89/45 50/90/46
f 42/74/42 41/73/41 53/91/47 54/92/48
f 31/41/31 29/39/29 48/93/49 49/94/50
f 29/39/29 1/38/1 45/95/51 48/93/49
f 6/66/6 32/69/39 50/90/46 47/96/52
f 41/73/41 31/41/31 49/94/50 53/91/47
f 44/80/44 42/79/42 54/97/48 55/98/53
f 4/4/4 6/6/6 47/99/52 46/100/54
f 37/53/36 40/71/40 52/101/55 51/89/45
f 1/1/1 4/4/4 46/100/54 45/102/51
f 40/71/40 44/80/44 55/98/53 52/101/55
f 49/94/50 48/93/49 59/103/56 60/104/57
f 53/91/47 49/94/50 60/104/57 64/105/58
f 54/92/48 53/91/47 64/105/58 65/106/59
f 52/101/55 55/98/53 66/107/60 63/108/61
f 48/93/49 45/95/51 56/109/62 59/103/56
f 51/89/45 52/101/55 63/108/61 62/110/63
f 46/100/54 47/99/52 58/111/64 57/112/65
f 47/96/52 50/90/46 61/113/66 58/114/64
f 50/90/46 51/89/45 62/110/63 61/113/66
f 45/102/51 46/100/54 57/112/65 56/115/62
f 55/98/53 54/97/48 65/116/59 66/107/60
f 57/112/65 58/111/64 67/117/67
f 58/114/64 61/113/66 67/118/67
f 61/113/66 62/110/63 67/119/67
f 66/107/60 65/116/59 67/120/67
f 60/104/57 59/103/56 67/121/67
f 64/105/58 60/104/57 67/122/67
f 65/106/59 64/105/58 67/119/67
f 63/108/61 66/107/60 67/123/67
f 59/103/56 56/109/62 67/124/67
f 62/110/63 63/108/61 67/125/67
f 56/115/62 57/112/65 67/126/67
