# Blender v2.77 (sub 0) OBJ File: 'kei.blend'
# www.blender.org
o model459.003
v -1.429900 12.826400 -0.991698
v -1.047700 12.793900 -0.948898
v -1.048500 12.913200 -1.238598
v -1.411700 12.895900 -1.324798
v -0.999900 12.924000 -1.519298
v -1.438700 12.857100 -1.621098
v -1.432200 11.679500 -1.234498
v -1.322300 11.868500 -0.885798
v -2.143200 11.791700 -0.793098
v -2.144900 11.651400 -1.266598
v -2.738300 11.763500 -0.764598
v -2.741100 11.627300 -1.284598
v -2.134800 12.231700 -0.640798
v -2.726900 12.251500 -0.582698
v -2.128600 12.651400 -0.787198
v -2.719800 12.697300 -0.747298
v -2.126400 12.814100 -0.952698
v -2.717300 12.874500 -0.923498
v -2.123400 12.891500 -1.323098
v -2.714200 12.941700 -1.334298
v -2.121400 12.854100 -1.645498
v -2.712000 12.915400 -1.682498
v -2.123000 12.423800 -1.966398
v -2.714200 12.445200 -2.002798
v -2.134700 11.815200 -1.783498
v -2.728900 11.795200 -1.820398
v -0.796900 11.765300 -1.604298
v -0.895000 11.671200 -1.235098
v -1.347900 11.853600 -1.747798
v -0.940300 12.569100 -1.884198
v -0.714500 12.241000 -1.917198
v -1.520000 12.419500 -1.895598
v -1.596200 12.800200 -1.621598
v -1.612100 12.845200 -1.324198
v -1.611200 12.773200 -1.001698
v -1.471200 12.668400 -0.811898
v -1.574600 12.621300 -0.833298
v -0.724000 12.713000 -1.794698
v -0.736000 11.924800 -1.824398
v -0.979600 11.845900 -0.854898
v -1.972600 12.369100 -1.269098
v -1.437500 12.230400 -0.695698
v -0.987000 12.590800 -0.760298
v -0.987500 12.195600 -0.702498
v -0.643661 12.676071 -1.039478
v -0.644260 12.765373 -1.256329
v -0.607881 12.773456 -1.466442
v -0.455929 11.906130 -1.530068
v -0.529360 11.835692 -1.253709
v -0.394250 12.262208 -1.764284
v -0.401361 12.615516 -1.672589
v -0.410343 12.025520 -1.694820
v -0.592686 11.966461 -0.969116
v -0.598225 12.524044 -0.898304
v -0.598599 12.228224 -0.855039
v -0.461140 12.515925 -1.162591
v -0.461466 12.564452 -1.280427
v -0.441698 12.568845 -1.394603
v -0.359127 12.097541 -1.429177
v -0.399029 12.059265 -1.279004
v -0.325610 12.291033 -1.556450
v -0.329474 12.483020 -1.506623
v -0.334355 12.162417 -1.518703
v -0.433440 12.130324 -1.124356
v -0.436450 12.433314 -1.085877
v -0.436654 12.272566 -1.062367
v -0.378186 12.325337 -1.309107
vt 0.270800 0.676500
vt 0.270800 0.699000
vt 0.293300 0.699000
vt 0.293300 0.676500
vt 0.315700 0.699000
vt 0.315700 0.676500
vt 0.005500 0.392100
vt 0.160200 0.451000
vt 0.160200 0.234800
vt 0.005500 0.234800
vt 0.160200 0.014300
vt 0.005500 0.014300
vt 0.241200 0.014300
vt 0.241200 0.234800
vt 0.179300 0.234800
vt 0.179300 0.014300
vt 0.334000 0.234800
vt 0.334000 0.014300
vt 0.426800 0.234800
vt 0.426800 0.014300
vt 0.535100 0.234800
vt 0.535100 0.014300
vt 0.689700 0.234800
vt 0.689700 0.014300
vt 0.798000 0.234800
vt 0.798000 0.014300
vt 0.798000 0.234800
vt 0.798000 0.014300
vt 0.426800 0.234800
vt 0.426800 0.014300
vt 0.005500 0.438600
vt 0.005500 0.438600
vt 0.394500 0.610400
vt 0.360700 0.620200
vt 0.394500 0.580700
vt 0.360700 0.580700
vt 0.338200 0.676500
vt 0.005500 0.624300
vt 0.338200 0.620200
vt 0.338200 0.580700
vt 0.315700 0.620200
vt 0.315700 0.580700
vt 0.589000 0.979700
vt 0.454200 0.979700
vt 0.454200 0.961900
vt 0.589000 0.961900
vt 0.454200 0.703700
vt 0.589000 0.703700
vt 0.743700 0.979700
vt 0.743700 0.961900
vt 0.743700 0.703700
vt 0.818500 0.979700
vt 0.818500 0.961900
vt 0.818500 0.703700
vt 0.409900 0.779100
vt 0.301700 0.842300
vt 0.005500 0.717200
vt 0.177900 0.717200
vt 0.005500 0.485000
vt 0.336200 0.562400
vt 0.005500 0.810000
vt 0.206600 0.810000
vt 0.005500 0.717200
vt 0.869200 0.686200
vt 0.853800 0.686200
vt 0.861500 0.995700
vt 0.869200 0.686200
vt 0.282300 0.923400
vt 0.246300 0.923400
vt 0.246300 0.986100
vt 0.282300 0.986100
vt 0.353500 0.986100
vt 0.353500 0.923400
vt 0.006700 0.923400
vt 0.160200 0.964800
vt 0.160200 0.964800
vt 0.160200 0.933800
vt 0.006700 0.861500
vt 0.206600 0.841000
vt 0.330300 0.871900
vt 0.933300 0.995700
vt 0.993000 0.686200
vt 0.977500 0.686200
vt 0.962000 0.686200
vt 0.884700 0.686200
vt 0.900200 0.686200
vt 0.931100 0.686200
vt 0.946600 0.686200
vt 0.005500 0.717200
vt 0.005500 0.624300
vt 0.006700 0.923400
vt 0.160200 0.964800
vt 0.270800 0.699000
vt 0.293300 0.699000
vt 0.005500 0.438600
vt 0.005500 0.438600
vt 0.005500 0.717200
vt 0.005500 0.810000
vt 0.005500 0.485000
vt 0.301700 0.842300
vt 0.315700 0.699000
vt 0.006700 0.861500
vt 0.005500 0.717200
vt 0.005500 0.624300
vt 0.006700 0.861500
vt 0.006700 0.923400
vt 0.270800 0.699000
vt 0.293300 0.699000
vt 0.005500 0.485000
vt 0.005500 0.717200
vt 0.005500 0.810000
vt 0.160200 0.964800
vt 0.005500 0.438600
vt 0.301700 0.842300
vt 0.315700 0.699000
vt 0.005500 0.438600
vt 0.006700 0.861500
vt 0.005500 0.438600
vt 0.005500 0.717200
vt 0.315700 0.699000
vt 0.005500 0.624300
vt 0.006700 0.923400
vt 0.293300 0.699000
vt 0.005500 0.485000
vt 0.005500 0.810000
vt 0.160200 0.964800
vn -0.131800 0.883600 0.449300
vn 0.160100 0.812800 0.560000
vn 0.142100 0.968000 0.207100
vn -0.174500 0.984000 0.037000
vn 0.135700 0.962400 -0.235300
vn -0.197800 0.846400 -0.494400
vn 0.024000 -0.997700 0.064200
vn -0.000100 -0.687000 0.726600
vn 0.087600 -0.710500 0.698200
vn 0.046500 -0.998800 -0.014900
vn -0.801400 -0.421500 0.424300
vn -0.858800 -0.511700 -0.025800
vn 0.100000 -0.012800 0.994900
vn -0.830700 0.039800 0.555300
vn 0.100600 0.531500 0.841100
vn -0.874100 0.277600 0.398600
vn 0.107400 0.875500 0.471100
vn -0.851500 0.470900 0.230900
vn 0.093100 0.994700 0.043500
vn -0.905600 0.424000 0.007400
vn 0.108400 0.862900 -0.493600
vn -0.804900 0.530000 -0.267000
vn 0.096600 0.161000 -0.982200
vn -0.810200 0.113800 -0.575000
vn 0.071700 -0.697100 -0.713400
vn -0.793100 -0.404700 -0.455200
vn 0.205600 -0.907700 -0.365800
vn 0.191100 -0.973400 0.126400
vn -0.003300 -0.670100 -0.742300
vn -0.013300 0.293900 -0.955700
vn 0.172100 -0.052400 -0.983700
vn 0.034900 0.148400 -0.988300
vn -0.077600 0.838600 -0.539200
vn -0.078000 0.996500 0.031500
vn -0.092000 0.888800 0.449000
vn -0.173400 0.529000 0.830700
vn -0.132400 0.499100 0.856400
vn 0.278300 0.639900 -0.716300
vn 0.210200 -0.574700 -0.790900
vn 0.139300 -0.673400 0.726000
vn -0.998600 -0.048700 -0.020500
vn 0.030800 -0.078800 0.996400
vn 0.169500 0.432900 0.885400
vn 0.159100 -0.136800 0.977700
vn 0.727500 0.547500 -0.413600
vn 0.724700 -0.023900 -0.688700
vn 0.587000 0.400200 0.703800
vn 0.531100 0.726600 0.435900
vn 0.534600 0.815200 0.222900
vn 0.679500 -0.714800 -0.165100
vn 0.631000 -0.749900 0.198700
vn 0.588200 -0.521400 0.618200
vn 0.723500 -0.468700 -0.506800
vn 0.528700 0.848600 -0.018900
vn 0.581400 -0.102100 0.807200
vn 0.945400 0.308500 0.104700
vn 0.995200 -0.017200 -0.096100
vn 0.889000 -0.048400 0.455300
vn 0.886000 0.278400 0.370900
vn 0.839000 0.494100 0.227900
vn 0.841600 0.507100 0.185900
vn 0.982500 -0.185400 -0.019900
vn 0.919700 -0.308000 0.243300
vn 0.891300 -0.234300 0.388200
vn 0.951300 -0.283300 0.122000
vn 0.798200 0.549300 0.247400
vn 0.966200 0.094700 0.239700
s 1
f 1/1/1 2/2/2 3/3/3
f 1/1/1 3/3/3 4/4/4
f 4/4/4 3/3/3 5/5/5
f 4/4/4 5/5/5 6/6/6
f 7/7/7 8/8/8 9/9/9
f 7/7/7 9/9/9 10/10/10
f 10/10/10 9/9/9 11/11/11
f 10/10/10 11/11/11 12/12/12
f 11/13/11 9/14/9 13/15/13
f 11/13/11 13/15/13 14/16/14
f 14/16/14 13/15/13 15/17/15
f 14/16/14 15/17/15 16/18/16
f 16/18/16 15/17/15 17/19/17
f 16/18/16 17/19/17 18/20/18
f 18/20/18 17/19/17 19/21/19
f 18/20/18 19/21/19 20/22/20
f 20/22/20 19/21/19 21/23/21
f 20/22/20 21/23/21 22/24/22
f 22/24/22 21/23/21 23/25/23
f 22/24/22 23/25/23 24/26/24
f 24/26/24 23/25/23 25/27/25
f 24/26/24 25/27/25 26/28/26
f 26/28/26 25/27/25 10/29/10
f 26/28/26 10/29/10 12/30/12
f 27/31/27 28/32/28 7/33/7
f 27/31/27 7/33/7 29/34/29
f 29/34/29 7/33/7 10/35/10
f 29/34/29 10/35/10 25/36/25
f 30/37/30 31/38/31 29/34/29
f 30/37/30 29/34/29 32/39/32
f 32/39/32 29/34/29 25/36/25
f 32/39/32 25/36/25 23/40/23
f 6/6/6 30/37/30 32/39/32
f 6/6/6 32/39/32 33/41/33
f 33/41/33 32/39/32 23/40/23
f 33/41/33 23/40/23 21/42/21
f 4/43/4 6/44/6 33/45/33
f 4/43/4 33/45/33 34/46/34
f 34/46/34 33/45/33 21/47/21
f 34/46/34 21/47/21 19/48/19
f 1/49/1 4/43/4 34/46/34
f 1/49/1 34/46/34 35/50/35
f 35/50/35 34/46/34 19/48/19
f 35/50/35 19/48/19 17/51/17
f 36/52/36 1/49/1 35/50/35
f 36/52/36 35/50/35 37/53/37
f 37/53/37 35/50/35 17/51/17
f 37/53/37 17/51/17 15/54/15
f 6/55/6 5/56/5 38/57/38
f 38/57/38 30/58/30 6/55/6
f 30/58/30 38/57/38 31/38/31
f 39/59/39 29/60/29 31/38/31
f 40/61/40 8/62/8 7/7/7
f 7/7/7 28/63/28 40/61/40
f 16/64/16 18/65/18 41/66/41
f 41/66/41 14/67/14 16/64/16
f 13/68/13 9/69/9 8/70/8
f 8/70/8 42/71/42 13/68/13
f 13/68/13 42/71/42 37/72/37
f 37/72/37 15/73/15 13/68/13
f 43/74/43 2/75/2 1/76/1
f 1/76/1 36/77/36 43/74/43
f 39/59/39 27/31/27 29/34/29
f 44/78/44 43/74/43 36/77/36
f 36/77/36 42/79/42 44/78/44
f 42/79/42 36/77/36 37/80/37
f 8/62/8 40/61/40 44/78/44
f 44/78/44 42/79/42 8/62/8
f 41/81/41 18/82/18 20/83/20
f 20/83/20 22/84/22 41/81/41
f 11/85/11 14/67/14 41/81/41
f 41/81/41 12/86/12 11/85/11
f 12/86/12 41/81/41 26/87/26
f 24/88/24 26/87/26 41/81/41
f 41/81/41 22/84/22 24/88/24
f 31/38/31 38/57/38 51/89/45 50/90/46
f 2/75/2 43/74/43 54/91/47 45/92/48
f 3/3/3 2/2/2 45/93/48 46/94/49
f 28/32/28 27/31/27 48/95/50 49/96/51
f 40/61/40 28/63/28 49/97/51 53/98/52
f 27/31/27 39/59/39 52/99/53 48/95/50
f 38/57/38 5/56/5 47/100/54 51/89/45
f 5/5/5 3/3/3 46/94/49 47/101/54
f 43/74/43 44/78/44 55/102/55 54/91/47
f 39/59/39 31/38/31 50/90/46 52/99/53
f 44/78/44 40/61/40 53/98/52 55/102/55
f 50/90/46 51/89/45 62/103/56 61/104/57
f 54/91/47 55/102/55 66/105/58 65/106/59
f 46/94/49 45/93/48 56/107/60 57/108/61
f 52/99/53 50/90/46 61/104/57 63/109/62
f 53/98/52 49/97/51 60/110/63 64/111/64
f 45/92/48 54/91/47 65/106/59 56/112/60
f 55/102/55 53/98/52 64/111/64 66/105/58
f 48/95/50 52/99/53 63/109/62 59/113/65
f 51/89/45 47/100/54 58/114/66 62/103/56
f 47/101/54 46/94/49 57/108/61 58/115/66
f 49/96/51 48/95/50 59/113/65 60/116/63
f 66/105/58 64/111/64 67/117/67
f 59/113/65 63/109/62 67/118/67
f 62/103/56 58/114/66 67/119/67
f 58/115/66 57/108/61 67/120/67
f 60/116/63 59/113/65 67/118/67
f 61/104/57 62/103/56 67/121/67
f 65/106/59 66/105/58 67/122/67
f 57/108/61 56/107/60 67/123/67
f 63/109/62 61/104/57 67/124/67
f 64/111/64 60/110/63 67/125/67
f 56/112/60 65/106/59 67/126/67
