# Blender v2.77 (sub 0) OBJ File: 'kei.blend'
# www.blender.org
o model459.005
v 0.909200 10.493800 -0.351098
v 0.150300 10.578000 -0.231098
v -0.608100 10.536800 -0.373998
v -0.977800 10.460700 -1.104798
v -0.640500 10.414200 -1.853798
v 0.172600 10.427700 -1.984198
v 0.979200 10.368300 -1.829398
v 1.295800 10.396300 -1.070398
v 0.148200 8.997900 -1.102399
v 1.942300 8.689000 -1.190699
v 1.512300 8.699500 -0.300399
v 0.244400 8.727700 -0.042999
v 1.337000 8.701100 -2.329998
v 0.009700 8.725700 -2.463699
v -1.267000 8.758800 -2.077599
v -1.642500 8.768400 -0.843199
v -1.049500 8.756200 -0.052099
v 0.188300 9.630600 -0.142098
v 1.096400 9.610300 -0.307498
v 1.516400 9.563800 -1.140399
v 1.057600 9.540600 -2.038498
v 0.085500 9.556100 -2.160198
v -0.863200 9.586700 -1.916999
v -1.211400 9.631000 -0.998598
v -0.730200 9.656400 -0.233098
v 0.664103 10.813300 -0.596077
v 0.153502 10.869951 -0.515338
v -0.356762 10.842231 -0.611484
v -0.605503 10.791030 -1.103179
v -0.378561 10.759744 -1.607119
v 0.168506 10.768826 -1.694854
v 0.711200 10.728862 -1.590702
v 0.924214 10.747701 -1.080034
v 0.160087 10.940537 -1.099848
vt 0.320800 0.790800
vt 0.320500 0.801700
vt 0.292000 0.801700
vt 0.287500 0.801700
vt 0.359300 0.801700
vt 0.367400 0.801500
vt 0.359300 0.801700
vt 0.320500 0.801700
vt 0.292000 0.801700
vt 0.290900 0.857700
vt 0.295200 0.857700
vt 0.322300 0.856200
vt 0.353000 0.854700
vt 0.359200 0.854300
vt 0.353000 0.854700
vt 0.322300 0.856200
vt 0.295200 0.857700
vt 0.294200 0.896100
vt 0.298700 0.893500
vt 0.323100 0.889800
vt 0.349900 0.888000
vt 0.355500 0.889500
vt 0.349900 0.888000
vt 0.323100 0.889800
vt 0.298700 0.893500
vt 0.323100 0.889800
vt 0.349900 0.888000
vt 0.355500 0.889500
vt 0.349900 0.888000
vt 0.294200 0.896100
vt 0.298700 0.893500
vt 0.323100 0.889800
vt 0.298700 0.893500
vt 0.298700 0.893500
vt 0.323100 0.889800
vt 0.294200 0.896100
vt 0.355500 0.889500
vt 0.349900 0.888000
vn -0.024100 -0.999500 -0.019700
vn 0.862800 -0.504800 -0.026000
vn 0.553300 -0.563900 0.613100
vn 0.036000 -0.719800 0.693300
vn 0.489500 -0.503500 -0.712000
vn -0.088400 -0.598300 -0.796300
vn -0.644700 -0.483000 -0.592500
vn -0.870400 -0.466900 0.156000
vn -0.440700 -0.533400 0.722000
vn 0.044900 0.100900 0.993900
vn 0.560800 0.205600 0.802000
vn 0.932400 0.361100 -0.014200
vn 0.520600 0.356600 -0.775800
vn -0.053800 0.280800 -0.958300
vn -0.608500 0.331600 -0.720900
vn -0.924500 0.373000 0.078600
vn -0.490400 0.253700 0.833800
vn 0.010200 0.429200 0.903100
vn 0.540700 0.437000 0.718800
vn 0.885700 0.464000 0.017400
vn 0.577800 0.444900 -0.684200
vn 0.020000 0.421900 -0.906400
vn -0.529300 0.439100 -0.726000
vn -0.874700 0.484500 -0.014100
vn -0.556500 0.471900 0.683900
vn -0.499800 0.864700 -0.049100
vn -0.304600 0.834900 -0.458400
vn 0.030800 0.827500 -0.560600
vn 0.356500 0.821400 -0.445300
vn 0.016700 0.885300 0.464700
vn -0.320200 0.877000 0.358300
vn 0.535900 0.843500 -0.034900
vn 0.350100 0.863200 0.363900
vn 0.028000 0.996600 -0.077100
s 1
f 9/1/1 10/2/2 11/3/3
f 11/3/3 12/4/4 9/1/1
f 13/5/5 10/2/2 9/1/1
f 9/1/1 14/6/6 13/5/5
f 14/6/6 9/1/1 15/7/7
f 16/8/8 15/7/7 9/1/1
f 9/1/1 17/9/9 16/8/8
f 17/9/9 9/1/1 12/4/4
f 18/10/10 12/4/4 11/3/3
f 18/10/10 11/3/3 19/11/11
f 19/11/11 11/3/3 10/2/2
f 19/11/11 10/2/2 20/12/12
f 20/12/12 10/2/2 13/5/5
f 20/12/12 13/5/5 21/13/13
f 21/13/13 13/5/5 14/6/6
f 21/13/13 14/6/6 22/14/14
f 22/14/14 14/6/6 15/7/7
f 22/14/14 15/7/7 23/15/15
f 23/15/15 15/7/7 16/8/8
f 23/15/15 16/8/8 24/16/16
f 24/16/16 16/8/8 17/9/9
f 24/16/16 17/9/9 25/17/17
f 25/17/17 17/9/9 12/4/4
f 25/17/17 12/4/4 18/10/10
f 2/18/18 18/10/10 19/11/11
f 2/18/18 19/11/11 1/19/19
f 1/19/19 19/11/11 20/12/12
f 1/19/19 20/12/12 8/20/20
f 8/20/20 20/12/12 21/13/13
f 8/20/20 21/13/13 7/21/21
f 7/21/21 21/13/13 22/14/14
f 7/21/21 22/14/14 6/22/22
f 6/22/22 22/14/14 23/15/15
f 6/22/22 23/15/15 5/23/23
f 5/23/23 23/15/15 24/16/16
f 5/23/23 24/16/16 4/24/24
f 4/24/24 24/16/16 25/17/17
f 4/24/24 25/17/17 3/25/25
f 25/17/17 18/10/10 2/18/18
f 2/18/18 3/25/25 25/17/17
f 5/23/23 4/24/24 29/26/26 30/27/27
f 7/21/21 6/22/22 31/28/28 32/29/29
f 3/25/25 2/18/18 27/30/30 28/31/31
f 8/20/20 7/21/21 32/29/29 33/32/32
f 4/24/24 3/25/25 28/31/31 29/26/26
f 1/19/19 8/20/20 33/32/32 26/33/33
f 6/22/22 5/23/23 30/27/27 31/28/28
f 2/18/18 1/19/19 26/33/33 27/30/30
f 26/33/33 33/32/32 34/34/34
f 33/32/32 32/29/29 34/35/34
f 27/30/30 26/33/33 34/36/34
f 28/31/31 27/30/30 34/34/34
f 31/28/28 30/27/27 34/37/34
f 32/29/29 31/28/28 34/38/34
f 29/26/26 28/31/31 34/35/34
f 30/27/27 29/26/26 34/38/34
