# Blender v2.77 (sub 0) OBJ File: 'kei.blend'
# www.blender.org
o model459.015
v 0.583200 12.384000 -0.498198
v 0.486400 12.692900 -0.712298
v 0.104500 12.468400 -0.586798
v 0.824100 11.555700 -0.312098
v 0.068000 11.649400 -0.356798
v 0.065500 11.195900 -0.285398
v -0.680300 11.573500 -0.487598
v -0.646400 11.137400 -0.513898
v -1.019100 11.446500 -1.264698
v -0.890400 11.116600 -1.244998
v -0.696700 11.721200 -1.893898
v -0.653000 11.192900 -1.922098
v 0.253500 11.921600 -1.920598
v 0.221900 11.157100 -1.997298
v 1.149900 11.698300 -1.678298
v 1.080100 11.158000 -1.808198
v 1.268100 11.419400 -0.997998
v 1.226300 11.074000 -1.105898
v 0.808000 11.117700 -0.359098
v 0.909200 10.493800 -0.351098
v 0.150300 10.578000 -0.231098
v -0.608100 10.536800 -0.373998
v -0.977800 10.460700 -1.104798
v -0.640500 10.414200 -1.853798
v 0.172600 10.427700 -1.984198
v 0.979200 10.368300 -1.829398
v 1.295800 10.396300 -1.070398
v -0.383700 12.395400 -0.611098
v -0.233000 12.701400 -0.796098
v -0.341510 12.402987 -1.703433
v 0.246667 12.527035 -1.719961
v 0.801543 12.388811 -1.569976
v -0.313639 12.746555 -1.426258
v 0.181795 12.835877 -1.338823
v 0.643926 12.734680 -1.314457
v -0.253403 12.774186 -1.150416
v 0.152976 12.771408 -0.861841
v 0.526052 12.764520 -1.059410
v 0.915617 12.386406 -1.034087
v 0.889970 12.387609 -1.302032
v 0.780799 12.385202 -0.766142
v -0.664295 12.399193 -1.157266
v -0.575386 12.401090 -1.430350
v -0.596481 12.397297 -0.884182
v 1.209000 11.558850 -1.338148
v 1.046100 11.487551 -0.655048
v -0.849700 11.510000 -0.876148
v -0.857900 11.583850 -1.579298
v 0.112494 12.708535 -0.715746
v 0.744520 10.125458 -0.515699
v 0.152452 10.191148 -0.422079
v -0.439227 10.159005 -0.533564
v -0.727654 10.099634 -1.103710
v -0.464504 10.063356 -1.688055
v 0.169849 10.073889 -1.789789
v 0.799132 10.027547 -1.669019
v 1.046132 10.049392 -1.076872
v 0.160087 9.843114 -1.099848
vt 0.319100 0.976000
vt 0.326100 0.983600
vt 0.320200 0.978800
vt 0.309400 0.945200
vt 0.305200 0.949400
vt 0.298200 0.931500
vt 0.309400 0.945200
vt 0.302700 0.927300
vt 0.318750 0.938900
vt 0.328100 0.932600
vt 0.326500 0.917800
vt 0.340050 0.928700
vt 0.352000 0.924800
vt 0.351400 0.913000
vt 0.358500 0.918700
vt 0.356700 0.903100
vt 0.352000 0.924800
vt 0.351400 0.913000
vt 0.340050 0.928700
vt 0.328100 0.932600
vt 0.326500 0.917800
vt 0.318750 0.938900
vt 0.302700 0.927300
vt 0.298700 0.893500
vt 0.294200 0.896100
vt 0.298700 0.893500
vt 0.323100 0.889800
vt 0.349900 0.888000
vt 0.355500 0.889500
vt 0.349900 0.888000
vt 0.323100 0.889800
vt 0.319100 0.976000
vt 0.326100 0.983600
vt 0.352000 0.924800
vt 0.358500 0.918700
vt 0.352000 0.924800
vt 0.352000 0.924800
vt 0.358500 0.918700
vt 0.352000 0.924800
vt 0.352000 0.924800
vt 0.358500 0.918700
vt 0.352000 0.924800
vt 0.345819 0.938598
vt 0.314453 0.894531
vt 0.314453 0.894531
vt 0.314453 0.894531
vt 0.314453 0.894531
vt 0.314453 0.894531
vt 0.314453 0.894531
vt 0.349900 0.888000
vt 0.355500 0.889500
vt 0.298700 0.893500
vt 0.294200 0.896100
vt 0.349900 0.888000
vt 0.298700 0.893500
vt 0.323100 0.889800
vt 0.323100 0.889800
vt 0.298700 0.893500
vt 0.294200 0.896100
vt 0.349900 0.888000
vt 0.355500 0.889500
vt 0.323100 0.889800
vn -0.119300 0.312700 0.942300
vn -0.055200 0.557000 0.828600
vn -0.089900 0.368700 0.925200
vn 0.311300 0.019600 0.950100
vn -0.100900 0.207300 0.973100
vn -0.110400 0.065900 0.991700
vn -0.507200 0.030400 0.861300
vn -0.696100 -0.024800 0.717500
vn -0.906700 -0.095300 0.410900
vn -0.930700 -0.332400 -0.152600
vn -0.993600 -0.103700 -0.044500
vn -0.772000 -0.333500 -0.541200
vn -0.485700 -0.039600 -0.873300
vn -0.578800 -0.021900 -0.815200
vn 0.113300 0.085600 -0.989900
vn 0.064300 0.040900 -0.997100
vn 0.697500 0.050200 -0.714800
vn 0.691600 0.014300 -0.722100
vn 0.976400 -0.077700 -0.201500
vn 0.954900 -0.191300 0.227100
vn 0.995000 -0.032900 0.094100
vn 0.783000 -0.269800 0.560500
vn 0.533800 -0.007000 0.845600
vn 0.565900 -0.197300 0.800500
vn -0.027500 -0.152500 0.987900
vn -0.586300 -0.160000 0.794100
vn -0.972500 -0.221200 0.073100
vn -0.587000 -0.307100 -0.749100
vn 0.004300 -0.245100 -0.969500
vn 0.612900 -0.297200 -0.732100
vn 0.967700 -0.243200 0.067200
vn -0.130900 0.358600 0.924300
vn -0.124200 0.557400 0.820900
vn 0.113800 0.313700 -0.942700
vn -0.617600 0.432600 -0.656800
vn -0.394800 0.506800 -0.766300
vn 0.117200 0.313600 -0.942300
vn 0.796600 0.420200 -0.434600
vn 0.616300 0.514300 -0.596400
vn 0.100100 0.723700 -0.682800
vn -0.432100 0.822400 -0.370000
vn 0.087100 0.723300 -0.685000
vn 0.516300 0.823100 -0.236600
vn 0.008600 0.997900 0.064600
vn -0.408200 0.908200 0.092500
vn 0.013900 0.997800 0.065000
vn 0.418000 0.888600 0.189100
vn 0.428700 0.791900 0.434900
vn -0.004900 0.963300 0.268500
vn -0.070900 0.771100 0.632800
vn -0.095100 0.473400 0.875700
vn -0.419900 0.824300 0.379700
vn 0.861900 0.501100 -0.077900
vn 0.846000 0.487400 0.216300
vn 0.703500 0.619400 0.348400
vn -0.795000 0.512200 -0.325100
vn -0.795500 0.496800 0.346900
vn -0.746000 0.460100 0.481400
vn -0.852200 0.521900 0.037900
vn 0.924600 0.372700 -0.078100
vn 0.912800 0.341400 0.224200
vn 0.815700 0.317400 0.483700
vn 0.818700 0.316600 0.479000
vn 0.796500 0.321800 0.511900
vn -0.836900 0.304200 0.455100
vn -0.882700 0.294000 0.366700
vn -0.941200 0.337800 0.008400
vn -0.852400 0.391300 -0.346900
vn 0.368600 -0.784800 -0.498300
vn -0.009600 -0.743600 -0.668600
vn -0.371400 -0.715000 0.592300
vn -0.029100 -0.676100 0.736300
vn -0.385000 -0.771800 -0.506100
vn 0.324300 -0.726600 0.605700
vn 0.607600 -0.789700 0.085300
vn -0.636100 -0.768600 0.067700
vn -0.027500 -0.996800 0.075500
s 1
f 1/1/1 2/2/2 3/3/3
f 1/1/1 3/3/3 4/4/4
f 4/4/4 3/3/3 5/5/5
f 4/4/4 5/5/5 6/6/6
f 6/6/6 5/5/5 7/7/7
f 6/6/6 7/7/7 8/8/8
f 8/8/8 7/7/7 47/9/9 9/10/10
f 8/8/8 9/10/10 10/11/11
f 10/11/11 9/10/10 48/12/12 11/13/13
f 10/11/11 11/13/13 12/14/14
f 12/14/14 11/13/13 13/15/15
f 12/14/14 13/15/15 14/16/16
f 14/16/16 13/15/15 15/17/17
f 14/16/16 15/17/17 16/18/18
f 16/18/18 15/17/17 45/19/19 17/20/20
f 16/18/18 17/20/20 18/21/21
f 18/21/21 17/20/20 46/22/22 4/4/4
f 18/21/21 4/4/4 19/23/23
f 19/23/23 4/4/4 6/6/6
f 19/23/23 6/6/6 20/24/24
f 20/24/24 6/6/6 21/25/25
f 21/25/25 6/6/6 8/8/8
f 21/25/25 8/8/8 22/26/26
f 22/26/26 8/8/8 10/11/11
f 22/26/26 10/11/11 23/27/27
f 23/27/27 10/11/11 12/14/14
f 23/27/27 12/14/14 24/28/28
f 24/28/28 12/14/14 14/16/16
f 24/28/28 14/16/16 25/29/29
f 25/29/29 14/16/16 26/30/30
f 18/21/21 19/23/23 20/24/24
f 20/24/24 27/31/31 18/21/21
f 18/21/21 27/31/31 26/30/30
f 26/30/30 16/18/18 18/21/21
f 16/18/18 26/30/30 14/16/16
f 28/32/32 7/7/7 5/5/5
f 5/5/5 3/3/3 28/32/32
f 3/3/3 29/33/33 28/32/32
f 13/15/34 11/13/35 30/34/36 31/35/37
f 15/17/38 13/15/34 31/35/37 32/36/39
f 31/35/40 30/34/36 33/37/41 34/38/42
f 32/36/39 31/35/40 34/38/42 35/39/43
f 34/38/44 33/37/41 36/40/45 37/41/46
f 35/39/43 34/38/44 37/41/46 38/42/47
f 2/2/48 38/42/47 37/41/49 49/43/50
f 3/3/51 49/43/50 29/33/52
f 32/36/39 35/39/43 40/44/53
f 35/39/43 38/42/47 39/45/54 40/44/53
f 1/1/55 39/45/54 38/42/47 2/2/48
f 30/34/36 43/46/56 33/37/41
f 29/33/52 44/47/57 28/32/58
f 33/37/41 43/46/56 42/48/59 36/40/45
f 36/40/45 42/48/59 44/47/57 29/33/52
f 15/17/38 32/36/39 40/44/53 45/19/60
f 45/19/60 40/44/53 39/45/54 17/20/61
f 17/20/61 39/45/54 41/49/62 46/22/63
f 1/1/64 4/4/64 46/22/63 41/49/62
f 7/7/65 28/32/58 44/47/57 47/9/66
f 9/10/67 47/9/66 44/47/57 42/48/59
f 43/46/56 48/12/68 9/10/67 42/48/59
f 11/13/35 48/12/68 43/46/56 30/34/36
f 29/33/52 49/43/50 37/41/49 36/40/45
f 49/43/50 3/3/51 2/2/48
f 25/29/29 26/30/30 56/50/69 55/51/70
f 21/25/25 22/26/26 52/52/71 51/53/72
f 24/28/28 25/29/29 55/51/70 54/54/73
f 20/24/24 21/25/25 51/53/72 50/55/74
f 26/30/30 27/31/31 57/56/75 56/50/69
f 27/31/31 20/24/24 50/55/74 57/56/75
f 22/26/26 23/27/27 53/57/76 52/52/71
f 23/27/27 24/28/28 54/54/73 53/57/76
f 50/55/74 51/53/72 58/58/77
f 51/53/72 52/52/71 58/59/77
f 54/54/73 55/51/70 58/60/77
f 55/51/70 56/50/69 58/61/77
f 52/52/71 53/57/76 58/58/77
f 53/57/76 54/54/73 58/62/77
f 57/56/75 50/55/74 58/62/77
f 56/50/69 57/56/75 58/60/77
